<?xml version="1.0" encoding="utf-8"?>
<!-- Generator: Adobe Illustrator 15.0.0, SVG Export Plug-In . SVG Version: 6.00 Build 0)  -->
<!DOCTYPE svg PUBLIC "-//W3C//DTD SVG 1.1//EN" "http://www.w3.org/Graphics/SVG/1.1/DTD/svg11.dtd">
<svg version="1.1" id="Layer_1" xmlns="http://www.w3.org/2000/svg" xmlns:xlink="http://www.w3.org/1999/xlink" x="0px" y="0px"
	 width="612px" height="612px" viewBox="0 0 612 612" enable-background="new 0 0 612 612" xml:space="preserve">
<circle fill="#004B8D" stroke="#F4C182" stroke-width="10" stroke-miterlimit="10" cx="306" cy="306" r="297"/>
<rect x="199.62" y="181.8" fill="#EE3124" width="32.4" height="88.2"/>
<path fill="#FFFFFF" d="M215.82,173.7c-32.4,0,0-56.7,0-56.7S248.22,173.7,215.82,173.7z"/>
<rect x="289.8" y="181.8" fill="#EE3124" width="32.401" height="88.2"/>
<path fill="#FFFFFF" d="M306,173.7c-32.399,0,0-56.7,0-56.7S338.399,173.7,306,173.7z"/>
<rect x="379.98" y="181.8" fill="#EE3124" width="32.399" height="88.2"/>
<path fill="#FFFFFF" d="M396.181,173.7c-32.4,0,0-56.7,0-56.7S428.58,173.7,396.181,173.7z"/>
<path fill="#F4C182" d="M462.268,384.768c-2.375,0-4.752-0.323-7.131-0.972c-8.676-2.366-14.828-8.52-17.785-11.477
	c-9.129-9.128-21.834-17.377-39.211,0c-13.123,13.122-25.178,13.19-32.979,10.937c-8.818-2.548-14.912-8.642-17.207-10.937
	c-7.086-7.085-21.613-16.494-39.301,0.087c-13.108,12.288-25.079,12.409-32.812,10.348c-6.111-1.63-12.087-5.237-17.284-10.435
	c-8.754-8.753-22.673-15.85-39.27,0.058c-13.113,12.567-25.112,12.67-32.869,10.544c-6.084-1.667-11.891-5.234-17.258-10.602
	c-8.344-8.344-16.763-11.326-25.161-8.967v3.397v33.75V468h324v-67.5v-16.375C466.093,384.545,464.182,384.768,462.268,384.768z"/>
<path fill="#F4C182" d="M157.441,355.896c8.818,2.548,14.912,8.643,17.207,10.937c8.753,8.753,22.672,15.85,39.27-0.058
	c13.113-12.566,25.112-12.67,32.869-10.544c6.084,1.668,11.89,5.234,17.257,10.602c7.086,7.086,21.614,16.496,39.301-0.087
	c13.107-12.288,25.078-12.409,32.812-10.348c6.111,1.631,12.088,5.237,17.283,10.435c13.01,13.009,26.203,13.009,39.211,0
	c10.59-10.59,21.492-14.451,32.4-11.476c8.676,2.366,14.83,8.519,17.787,11.476c2.674,2.675,7.652,7.652,14.34,9.477
	c3.547,0.967,7.16,0.88,10.82-0.245v-9.313v-35.509c-1.907,0.421-3.818,0.643-5.732,0.643c-2.375,0-4.752-0.323-7.131-0.972
	c-8.676-2.366-14.828-8.52-17.785-11.477c-9.129-9.128-21.834-17.377-39.211,0c-13.123,13.122-25.178,13.19-32.979,10.937
	c-8.818-2.548-14.912-8.642-17.207-10.937c-7.086-7.085-21.613-16.494-39.301,0.087c-13.108,12.288-25.079,12.409-32.812,10.348
	c-6.111-1.63-12.087-5.237-17.284-10.435c-8.754-8.753-22.673-15.85-39.27,0.058c-13.113,12.567-25.112,12.67-32.869,10.544
	c-6.084-1.667-11.891-5.234-17.258-10.602c-8.344-8.344-16.763-11.326-25.161-8.967v44.893
	C149.196,354.293,153.786,354.84,157.441,355.896z"/>
<path fill="#FFFFFF" d="M157.441,303.012c8.818,2.548,14.912,8.643,17.207,10.937c8.753,8.753,22.672,15.85,39.27-0.058
	c13.113-12.566,25.112-12.67,32.869-10.544c6.084,1.668,11.89,5.234,17.257,10.602c7.086,7.086,21.614,16.496,39.301-0.087
	c13.107-12.288,25.078-12.409,32.812-10.348c6.111,1.631,12.088,5.237,17.283,10.435c13.01,13.009,26.203,13.009,39.211,0
	c10.59-10.59,21.492-14.451,32.4-11.476c8.676,2.366,14.83,8.519,17.787,11.476c2.674,2.675,7.652,7.652,14.34,9.477
	c3.547,0.967,7.16,0.88,10.82-0.245V292.5c0-14.911-12.088-27-27-27H171c-14.912,0-27,12.089-27,27v9.978
	C149.196,301.409,153.786,301.956,157.441,303.012z"/>
</svg>
