<?xml version="1.0" encoding="utf-8"?>
<!-- Generator: Adobe Illustrator 25.4.1, SVG Export Plug-In . SVG Version: 6.00 Build 0)  -->
<svg version="1.1" id="Layer_1" xmlns="http://www.w3.org/2000/svg" xmlns:xlink="http://www.w3.org/1999/xlink" x="0px" y="0px"
	 viewBox="0 0 15 13.5" style="enable-background:new 0 0 15 13.5;" xml:space="preserve">
<style type="text/css">
	.st0{fill:#FFFFFF;}
</style>
<path class="st0" d="M14.7,10.6L9.2,1C8.4-0.3,6.6-0.3,5.8,1l-5.6,9.6c-0.7,1.3,0.2,2.9,1.7,2.9h11.1C14.5,13.5,15.5,11.9,14.7,10.6
	z M7.4,3.1h0.3c0.5,0,1,0.4,1,1L8.4,7.5c0,0.5-0.4,1-0.9,1S6.6,8,6.6,7.5L6.4,4.1C6.4,3.5,6.8,3.1,7.4,3.1z M7.5,11.3
	c-0.6,0-1.2-0.5-1.2-1.2C6.3,9.5,6.9,9,7.5,9c0.6,0,1.2,0.5,1.2,1.2C8.7,10.9,8.1,11.3,7.5,11.3z"/>
</svg>
