<?xml version="1.0" encoding="utf-8"?>
<!-- Generator: Adobe Illustrator 15.0.0, SVG Export Plug-In . SVG Version: 6.00 Build 0)  -->
<!DOCTYPE svg PUBLIC "-//W3C//DTD SVG 1.1//EN" "http://www.w3.org/Graphics/SVG/1.1/DTD/svg11.dtd">
<svg version="1.1" id="Layer_1" xmlns="http://www.w3.org/2000/svg" xmlns:xlink="http://www.w3.org/1999/xlink" x="0px" y="0px"
	 width="612px" height="612px" viewBox="0 0 612 612" enable-background="new 0 0 612 612" xml:space="preserve">
<circle fill="#004B8D" stroke="#F4C182" stroke-width="10" stroke-miterlimit="10" cx="306" cy="306" r="297"/>
<g>
	<defs>
		<path id="SVGID_1_" d="M306,14C144.991,14,14,144.991,14,306c0,161.01,130.991,292,292,292c161.01,0,292-130.99,292-292
			C598,144.991,467.01,14,306,14z"/>
	</defs>
	<clipPath id="SVGID_2_">
		<use xlink:href="#SVGID_1_"  overflow="visible"/>
	</clipPath>
	<g clip-path="url(#SVGID_2_)">
		<ellipse fill="#FFFFFF" cx="306" cy="503" rx="256.5" ry="109"/>
		<g>
			<path fill="#FFFFFF" d="M161.53,321.172L130.334,428.5h-26.169L72.97,321.172C41.241,322.621,16,346.68,16,376.143v96.318
				c0,30.395,26.863,55.039,60,55.039h82.5c33.137,0,60-24.645,60-55.039v-96.318C218.5,346.68,193.259,322.621,161.53,321.172z"/>
			<ellipse fill="#FFFFFF" cx="117.25" cy="237.379" rx="62.75" ry="70.097"/>
		</g>
		<g>
			<polygon fill="#FFFFFF" points="156.188,435.984 78.304,435.984 105.563,342.523 128.929,342.523 			"/>
			<path fill="#FFFFFF" d="M137.289,330.014c3.143-8.906-2.013-16.191-11.457-16.191H108.66c-9.444,0-14.6,7.285-11.457,16.191
				l1.449,4.105c3.144,8.906,11.511,16.193,18.594,16.193s15.45-7.287,18.594-16.193L137.289,330.014z"/>
			<path fill="#FFFFFF" d="M537.03,321.172l-20.915,97.289h-46.73l-20.915-97.289c-31.729,1.449-56.97,25.508-56.97,54.971v96.318
				c0,30.395,26.863,55.039,60,55.039H534c33.137,0,60-24.645,60-55.039v-96.318C594,346.68,568.76,322.621,537.03,321.172z"/>
			<polygon fill="#FFFFFF" points="531.692,435.984 453.808,435.984 481.067,342.523 504.433,342.523 			"/>
			<path fill="#FFFFFF" d="M512.793,330.014c3.143-8.906-2.013-16.191-11.457-16.191h-17.172c-9.444,0-14.6,7.285-11.457,16.191
				l1.449,4.105c3.144,8.906,11.511,16.193,18.594,16.193s15.45-7.287,18.594-16.193L512.793,330.014z"/>
			<ellipse fill="#FFFFFF" cx="492.75" cy="237.379" rx="65.25" ry="70.097"/>
		</g>
		<g>
			<path fill="#FFFFFF" d="M345.711,282.033l-39.009,88.947h-1.402l-39.01-88.947c-28.455,1.449-50.402,17.18-50.402,46.629v96.318
				c0,30.395,15.727,55.039,48.863,55.039h82.5c33.137,0,48.863-24.645,48.863-55.039v-96.318
				C396.113,299.213,374.166,283.482,345.711,282.033z"/>
			<ellipse fill="#FFFFFF" cx="304.097" cy="190.129" rx="60.653" ry="70.097"/>
			<polygon fill="#FFFFFF" points="342.25,282.033 328.75,304.534 315.25,273.033 333.25,268.533 			"/>
			<polygon fill="#FFFFFF" points="270.25,282.032 283.75,304.533 297.25,273.033 279.25,268.533 			"/>
			<path fill="#FFFFFF" d="M319.75,304.533c0,2.485-2.014,4.493-4.5,4.493c-2.484,0-4.5-2.008-4.5-4.493s2.016-4.5,4.5-4.5
				C317.736,300.033,319.75,302.048,319.75,304.533z"/>
			<path fill="#FFFFFF" d="M301.75,304.533c0,2.485-2.015,4.493-4.5,4.493s-4.5-2.008-4.5-4.493s2.015-4.5,4.5-4.5
				S301.75,302.048,301.75,304.533z"/>
			<path fill="#FFFFFF" d="M310.75,309.026c0,2.479-2.014,4.493-4.5,4.493c-2.485,0-4.5-2.015-4.5-4.493s2.015-4.493,4.5-4.493
				C308.736,304.533,310.75,306.548,310.75,309.026z"/>
			<circle fill="#FFFFFF" cx="292.75" cy="295.533" r="4.5"/>
			<circle fill="#FFFFFF" cx="319.75" cy="295.533" r="4.5"/>
		</g>
	</g>
</g>
<path fill="#EE3124" d="M306,420.131c0,0-30.936-25.762-61.736-1.146c-30.814,24.603-8.945,97.592,61.736,139.326
	c70.687-41.734,92.547-114.724,61.736-139.326C336.932,394.369,306,420.131,306,420.131"/>
</svg>
