<?xml version="1.0" encoding="utf-8"?>
<!-- Generator: Adobe Illustrator 25.4.1, SVG Export Plug-In . SVG Version: 6.00 Build 0)  -->
<svg version="1.1" id="Layer_1" xmlns="http://www.w3.org/2000/svg" xmlns:xlink="http://www.w3.org/1999/xlink" x="0px" y="0px"
	 viewBox="0 0 18 24" style="enable-background:new 0 0 18 24;" xml:space="preserve">
<style type="text/css">
	.st0{fill:#8E8E8E;}
</style>
<g>
	<path class="st0" d="M8.1,21.5c-2.9-0.2-5-1.3-6.4-2.9l1.8-2.5c1.1,1.1,2.6,2.2,4.6,2.5v-5.3c-2.8-0.7-5.9-1.7-5.9-5.4
		c0-2.8,2.3-5,5.9-5.3V0h2.2v2.6c2.2,0.2,4.1,1.1,5.6,2.5L14,7.5c-1.1-1-2.3-1.7-3.7-1.9v4.8c2.9,0.8,6,1.9,6,5.6
		c0,2.8-1.8,5.3-6,5.6V24H8.1V21.5z M8.1,9.7V5.4C6.6,5.6,5.6,6.5,5.6,7.7C5.6,8.8,6.7,9.3,8.1,9.7z M10.3,13.9v4.8
		c1.9-0.3,2.7-1.4,2.7-2.5C13,14.9,11.9,14.3,10.3,13.9z"/>
</g>
</svg>
