<?xml version="1.0" encoding="utf-8"?>
<!-- Generator: Adobe Illustrator 15.0.0, SVG Export Plug-In . SVG Version: 6.00 Build 0)  -->
<!DOCTYPE svg PUBLIC "-//W3C//DTD SVG 1.1//EN" "http://www.w3.org/Graphics/SVG/1.1/DTD/svg11.dtd">
<svg version="1.1" id="Layer_1" xmlns="http://www.w3.org/2000/svg" xmlns:xlink="http://www.w3.org/1999/xlink" x="0px" y="0px"
	 width="49.25px" height="49.248px" viewBox="0 0 49.25 49.248" enable-background="new 0 0 49.25 49.248" xml:space="preserve">
<path fill="#6699CC" d="M24.625,0C11.023,0,0,11.027,0,24.625c0,13.6,11.024,24.623,24.625,24.623
	c13.6,0,24.625-11.023,24.625-24.623C49.25,11.027,38.223,0,24.625,0z M31.141,24.521h-4.264c0,6.813,0,15.206,0,15.206h-6.32
	c0,0,0-8.307,0-15.206h-3.006v-5.369h3.006v-3.479c0-2.49,1.182-6.377,6.379-6.377l4.68,0.019v5.215c0,0-2.846,0-3.397,0
	c-0.555,0-1.34,0.276-1.34,1.461v3.163h4.817L31.141,24.521z"/>
</svg>
