<?xml version="1.0" encoding="utf-8"?>
<!-- Generator: Adobe Illustrator 25.4.1, SVG Export Plug-In . SVG Version: 6.00 Build 0)  -->
<svg version="1.1" id="Layer_1" xmlns="http://www.w3.org/2000/svg" xmlns:xlink="http://www.w3.org/1999/xlink" x="0px" y="0px"
	 viewBox="0 0 86.6 83.1" style="enable-background:new 0 0 86.6 83.1;" xml:space="preserve">
<style type="text/css">
	.st0{fill:#002F87;stroke:#FFC844;stroke-width:1.885;stroke-miterlimit:3.8637;}
	.st1{fill:#EE3124;stroke:#FFC844;stroke-width:1.508;}
</style>
<path class="st0" d="M11,54.9V32.7c0,0-0.4-5.4,4-5.6c4.4-0.3,6.2,4.6,6.2,4.6s2.1,6.8,2.5,15.9c0.4,3.8,1.7,5.2,4.9,8.2
	c3.3,3,10.2,7.6,8.5,26.4H0.9V31.7L31.8,2.5c0,0,3.7-3.4,7.1-0.3s0.5,7.9,0.5,7.9L20,29.1"/>
<path class="st1" d="M43.3,26.6c0,0-7.1-5.9-14.1-0.3c-7,5.6-2,22.3,14.1,31.8C59.4,48.7,64.4,32,57.4,26.4
	C50.4,20.8,43.3,26.6,43.3,26.6L43.3,26.6z"/>
<path class="st0" d="M75.6,54.9V32.7c0,0,0.4-5.4-4-5.6c-4.4-0.3-6.2,4.6-6.2,4.6s-2.1,6.8-2.5,15.9c-0.4,3.8-1.7,5.2-4.9,8.2
	c-3.2,3-10.1,7.6-8.5,26.4h36.2V31.7L54.8,2.5c0,0-3.7-3.4-7.1-0.3c-3.4,3.2-0.5,7.9-0.5,7.9l19.4,18.9"/>
</svg>
