<?xml version="1.0" encoding="utf-8"?>
<!-- Generator: Adobe Illustrator 15.0.0, SVG Export Plug-In . SVG Version: 6.00 Build 0)  -->
<!DOCTYPE svg PUBLIC "-//W3C//DTD SVG 1.1//EN" "http://www.w3.org/Graphics/SVG/1.1/DTD/svg11.dtd">
<svg version="1.1" id="Layer_1" xmlns="http://www.w3.org/2000/svg" xmlns:xlink="http://www.w3.org/1999/xlink" x="0px" y="0px"
	 width="49.25px" height="49.248px" viewBox="0 0 49.25 49.248" enable-background="new 0 0 49.25 49.248" xml:space="preserve">
<path fill="#6699CC" d="M24.625,0C11.023,0,0,11.027,0,24.625c0,13.6,11.024,24.623,24.625,24.623
	c13.6,0,24.625-11.023,24.625-24.623C49.25,11.027,38.223,0,24.625,0z M15.181,32.254c-4.281,0-7.751-3.467-7.751-7.748
	c0-4.283,3.47-7.75,7.751-7.75c4.281,0,7.75,3.467,7.75,7.75C22.93,28.787,19.462,32.254,15.181,32.254z M34.629,32.254
	c-4.281,0-7.75-3.467-7.75-7.748c0-4.283,3.469-7.75,7.75-7.75c4.277,0,7.75,3.467,7.75,7.75
	C42.379,28.787,38.907,32.254,34.629,32.254z"/>
</svg>
