<?xml version="1.0" encoding="utf-8"?>
<!-- Generator: Adobe Illustrator 15.0.0, SVG Export Plug-In . SVG Version: 6.00 Build 0)  -->
<!DOCTYPE svg PUBLIC "-//W3C//DTD SVG 1.1//EN" "http://www.w3.org/Graphics/SVG/1.1/DTD/svg11.dtd">
<svg version="1.1" id="Layer_1" xmlns="http://www.w3.org/2000/svg" xmlns:xlink="http://www.w3.org/1999/xlink" x="0px" y="0px"
	 width="612px" height="612px" viewBox="0 0 612 612" enable-background="new 0 0 612 612" xml:space="preserve">
<circle fill="#004B8D" stroke="#F4C182" stroke-width="10" stroke-miterlimit="10" cx="306" cy="306" r="297"/>
<g>
	<defs>
		<path id="SVGID_1_" d="M306,14C144.991,14,14,144.991,14,306c0,161.01,130.991,292,292,292c161.01,0,292-130.99,292-292
			C598,144.991,467.01,14,306,14z"/>
	</defs>
	<clipPath id="SVGID_2_">
		<use xlink:href="#SVGID_1_"  overflow="visible"/>
	</clipPath>
</g>
<g>
	<path fill="#FFFFFF" d="M449.549,409c-17.946,0-32.51,14.554-32.51,32.5s14.563,32.5,32.51,32.5c17.945,0,32.49-14.554,32.49-32.5
		S467.494,409,449.549,409z"/>
</g>
<ellipse fill="#FFFFFF" cx="234" cy="456.75" rx="103.5" ry="20.25"/>
<rect x="182" y="130" fill="#FFFFFF" width="37.211" height="311"/>
<path fill="#FFFFFF" d="M416.975,129.982c-66.456,31.5-132.912-31.5-199.368,0c0,52.5,0,105,0,157.5
	c66.456-31.5,132.912,31.5,199.368,0C416.975,234.982,416.975,182.482,416.975,129.982z"/>
<g>
	<path fill="#EE3124" d="M310.796,186.688c0,0-7.448-6.202-14.862-0.276c-7.418,5.923-2.153,23.494,14.862,33.541
		c17.017-10.047,22.279-27.617,14.862-33.541C318.242,180.486,310.796,186.688,310.796,186.688"/>
	<g>
		<path fill="#004B8D" stroke="#F4C182" stroke-width="4" stroke-miterlimit="10" d="M269.83,221.237v-28.23
			c0,0-0.5-6.785,5.119-7.119c5.621-0.331,7.912,5.789,7.912,5.789s2.7,8.575,3.163,20.15c0.463,4.789,2.127,6.618,6.249,10.408
			c4.121,3.79,12.867,9.576,10.74,33.519h-45.922v-63.911l39.138-37.012c0,0,4.657-4.328,8.947-0.333
			c4.291,3.992,0.667,10.076,0.667,10.076l-24.607,23.976"/>
		<path fill="#004B8D" stroke="#F4C182" stroke-width="4" stroke-miterlimit="3.864" d="M351.767,221.237v-28.23
			c0,0,0.495-6.785-5.123-7.119c-5.622-0.331-7.912,5.789-7.912,5.789s-2.698,8.575-3.159,20.15
			c-0.465,4.789-2.129,6.618-6.254,10.408c-4.12,3.79-12.863,9.576-10.738,33.519h45.92v-63.911l-39.135-37.012
			c0,0-4.658-4.328-8.948-0.333c-4.288,3.992-0.665,10.076-0.665,10.076l24.605,23.976"/>
	</g>
</g>
</svg>
