<?xml version="1.0" encoding="utf-8"?>
<!-- Generator: Adobe Illustrator 15.0.0, SVG Export Plug-In . SVG Version: 6.00 Build 0)  -->
<!DOCTYPE svg PUBLIC "-//W3C//DTD SVG 1.1//EN" "http://www.w3.org/Graphics/SVG/1.1/DTD/svg11.dtd">
<svg version="1.1" id="Layer_1" xmlns="http://www.w3.org/2000/svg" xmlns:xlink="http://www.w3.org/1999/xlink" x="0px" y="0px"
	 width="49.25px" height="49.248px" viewBox="0 0 49.25 49.248" enable-background="new 0 0 49.25 49.248" xml:space="preserve">
<path fill="#6699CC" d="M24.625,0C11.023,0,0,11.027,0,24.625c0,13.6,11.023,24.623,24.625,24.623
	c13.6,0,24.625-11.023,24.625-24.623C49.25,11.027,38.223,0,24.625,0z M18.605,35.159c-5.825,0-10.536-4.71-10.536-10.535
	c0-5.825,4.711-10.535,10.536-10.535c2.845,0,5.222,1.038,7.058,2.754l-2.859,2.754c-0.783-0.752-2.153-1.625-4.199-1.625
	c-3.598,0-6.532,2.981-6.532,6.652c0,3.673,2.934,6.652,6.532,6.652c4.168,0,5.735-2.995,5.976-4.545h-5.976v-3.612h9.948
	c0.091,0.526,0.167,1.054,0.167,1.746C28.72,30.886,24.686,35.159,18.605,35.159z M41.181,26.129h-3.01v3.011H35.16v-3.011h-3.01
	v-3.01h3.01v-3.01h3.011v3.01h3.01V26.129z"/>
</svg>
