<?xml version="1.0" encoding="utf-8"?>
<!-- Generator: Adobe Illustrator 25.4.1, SVG Export Plug-In . SVG Version: 6.00 Build 0)  -->
<svg version="1.1" id="Layer_1" xmlns="http://www.w3.org/2000/svg" xmlns:xlink="http://www.w3.org/1999/xlink" x="0px" y="0px"
	 viewBox="0 0 341 98" style="enable-background:new 0 0 341 98;" xml:space="preserve">
<style type="text/css">
	.st0{fill:#EE3124;}
	.st1{fill:#FFFFFF;}
	.st2{fill:#C59B6C;}
</style>
<g>
	<path class="st0" d="M169.3,12.1c0,0-12-10-23.9-0.4c-11.9,9.5-3.5,37.8,23.9,54c27.4-16.2,35.9-44.5,23.9-54
		C181.2,2.1,169.3,12.1,169.3,12.1"/>
	<path class="st1" d="M24.9,45.8c0.1,0,0.2-0.1,0.2-0.2V45c0-4.3,0-5.1-0.1-6c-0.1-1-0.3-1.4-1.2-1.6c-0.2-0.1-0.7-0.1-1.1-0.1
		c-0.3,0-0.5-0.1-0.5-0.3s0.2-0.3,0.6-0.3c1.5,0,3.3,0.1,4.1,0.1c0.7,0,2.5-0.1,3.6-0.1c0.4,0,0.6,0.1,0.6,0.3s-0.2,0.3-0.5,0.3
		c-0.2,0-0.5,0-0.8,0.1c-0.8,0.1-1,0.6-1,1.6c-0.1,0.9-0.1,1.7-0.1,6v5c0,2.6,0,4.8,0.1,6c0.1,0.8,0.3,1.4,1.1,1.5
		c0.4,0.1,1,0.1,1.4,0.1c0.3,0,0.5,0.1,0.5,0.2c0,0.2-0.2,0.3-0.6,0.3c-1.8,0-3.6-0.1-4.4-0.1c-0.6,0-2.4,0.1-3.5,0.1
		c-0.4,0-0.6-0.1-0.6-0.3c0-0.1,0.1-0.2,0.5-0.2s0.8-0.1,1-0.1c0.6-0.1,0.7-0.7,0.8-1.5c0.1-1.2,0.1-3.4,0.1-6v-2.5
		c0-0.1-0.1-0.2-0.2-0.2H14.2c-0.1,0-0.2,0-0.2,0.2V50c0,2.6,0,4.8,0.1,6c0.1,0.8,0.3,1.4,1.1,1.5c0.4,0.1,1,0.1,1.4,0.1
		c0.3,0,0.5,0.1,0.5,0.2c0,0.2-0.2,0.3-0.6,0.3c-1.8,0-3.6-0.1-4.4-0.1c-0.6,0-2.4,0.1-3.6,0.1C8.2,58.1,8,58,8,57.8
		c0-0.1,0.1-0.2,0.5-0.2s0.8-0.1,1-0.1c0.6-0.1,0.7-0.7,0.8-1.5c0.1-1.2,0.1-3.4,0.1-6v-5c0-4.3,0-5.1-0.1-6c-0.1-1-0.3-1.4-1.2-1.6
		c-0.2-0.1-0.7-0.1-1.1-0.1c-0.3,0-0.5-0.1-0.5-0.3s0.2-0.3,0.6-0.3c1.5,0,3.3,0.1,4.1,0.1c0.7,0,2.5-0.1,3.6-0.1
		c0.4,0,0.6,0.1,0.6,0.3s-0.2,0.3-0.5,0.3c-0.2,0-0.5,0-0.8,0.1c-0.8,0.1-1,0.6-1,1.6C14,39.9,14,40.7,14,45v0.6
		c0,0.1,0.1,0.2,0.2,0.2H24.9"/>
	<path class="st1" d="M34.8,47.5c0-4.8,3.2-11,11.6-11c7,0,11.4,4.1,11.4,10.5c0,6.5-4.5,11.6-11.7,11.6
		C38.1,58.5,34.8,52.4,34.8,47.5 M53.9,48c0-6.3-3.6-10.2-8.3-10.2c-3.2,0-6.9,1.8-6.9,8.8c0,5.9,3.2,10.5,8.7,10.5
		C49.3,57.1,53.9,56.1,53.9,48z"/>
	<path class="st1" d="M68.4,38.4l-4.2,0.1c-1.6,0.1-2.3,0.2-2.7,0.8c-0.3,0.4-0.4,0.8-0.5,1s-0.1,0.3-0.3,0.3s-0.3-0.1-0.3-0.5
		c0-0.5,0.5-3,0.6-3.2c0.1-0.4,0.2-0.5,0.3-0.5c0.2,0,0.5,0.3,1.2,0.3c0.8,0.1,1.9,0.1,2.8,0.1h11.2c0.9,0,1.5-0.1,1.9-0.1
		c0.4-0.1,0.6-0.1,0.8-0.1c0.2,0,0.2,0.2,0.2,0.6c0,0.6-0.1,2.5-0.1,3.3c0,0.3-0.1,0.5-0.3,0.5c-0.2,0-0.3-0.1-0.3-0.6v-0.3
		c-0.1-0.7-0.8-1.5-3.3-1.6L72,38.4V50c0,2.6,0,4.8,0.1,6c0.1,0.8,0.3,1.4,1.1,1.5c0.4,0.1,1,0.1,1.4,0.1c0.3,0,0.5,0.1,0.5,0.2
		c0,0.2-0.2,0.3-0.5,0.3c-1.9,0-3.6-0.1-4.4-0.1c-0.6,0-2.4,0.1-3.6,0.1c-0.4,0-0.6-0.1-0.6-0.3c0-0.1,0.1-0.2,0.5-0.2
		s0.8-0.1,1-0.1c0.6-0.1,0.7-0.7,0.8-1.6c0.1-1.2,0.1-3.4,0.1-6V38.4"/>
	<path class="st1" d="M87.5,45c0-4.3,0-5.1-0.1-6c-0.1-1-0.3-1.4-1.2-1.6c-0.2-0.1-0.7-0.1-1.1-0.1c-0.3,0-0.5-0.1-0.5-0.3
		s0.2-0.3,0.6-0.3c0.8,0,1.6,0,2.3,0c0.7,0,1.4,0.1,1.8,0.1c0.9,0,6.5,0,7,0c0.5-0.1,1-0.1,1.2-0.2c0.1,0,0.3-0.1,0.5-0.1
		c0.1,0,0.2,0.1,0.2,0.3s-0.1,0.5-0.2,1.8c0,0.3-0.1,1.5-0.1,1.9c0,0.1-0.1,0.3-0.3,0.3c-0.2,0-0.3-0.1-0.3-0.4c0-0.2,0-0.7-0.2-1
		c-0.2-0.5-0.5-0.8-1.9-1c-0.5-0.1-3.4-0.1-4-0.1c-0.1,0-0.2,0.1-0.2,0.3v7.1c0,0.2,0,0.3,0.2,0.3c0.6,0,3.9,0,4.5-0.1
		c0.7-0.1,1.1-0.1,1.4-0.4c0.2-0.2,0.3-0.4,0.5-0.4c0.1,0,0.2,0.1,0.2,0.2s-0.1,0.6-0.2,2.1c0,0.6-0.1,1.7-0.1,1.9s0,0.5-0.3,0.5
		c-0.2,0-0.3-0.1-0.3-0.3c0-0.3,0-0.6-0.1-1c-0.1-0.6-0.5-1-1.6-1.1c-0.5-0.1-3.3-0.1-4-0.1c-0.1,0-0.2,0.1-0.2,0.3v2.2
		c0,1,0,3.5,0,4.4c0.1,1.9,0.5,2.4,3.4,2.4c0.7,0,1.9,0,2.6-0.3s1.1-0.9,1.3-2.1c0.1-0.3,0.1-0.4,0.3-0.4c0.2,0,0.2,0.2,0.2,0.5
		c0,0.6-0.2,2.6-0.4,3.1c-0.2,0.7-0.5,0.7-1.5,0.7c-2.1,0-3.7-0.1-4.9-0.1c-1.1,0.1-2,0-2.8,0c-0.3,0-0.9,0-1.6,0
		c-0.6,0-1.4,0.1-1.9,0.1c-0.4,0-0.6-0.1-0.6-0.3c0-0.1,0.1-0.2,0.5-0.2s0.8-0.1,1-0.1c0.6-0.1,0.7-0.7,0.8-1.5
		c0.1-1.2,0.1-3.4,0.1-6V45"/>
	<path class="st1" d="M111.7,49.9c0,3.6,0,5.5,0.6,6.1c0.5,0.4,1.2,0.6,3.4,0.6c1.5,0,2.6,0,3.3-0.8c0.3-0.4,0.7-1.2,0.7-1.7
		c0-0.3,0.1-0.4,0.3-0.4c0.2,0,0.2,0.1,0.2,0.5c0,0.3-0.2,2.4-0.4,3.2c-0.2,0.6-0.3,0.8-1.8,0.8c-2,0-3.5-0.1-4.8-0.1
		c-1.3-0.1-2.3-0.1-3.4-0.1c-0.3,0-0.9,0-1.6,0c-0.6,0-1.4,0.1-1.9,0.1c-0.4,0-0.6-0.1-0.6-0.3c0-0.1,0.1-0.2,0.5-0.2s0.8-0.1,1-0.1
		c0.6-0.1,0.7-0.7,0.8-1.5c0.1-1.2,0.1-3.4,0.1-6v-5c0-4.3,0-5.1-0.1-6c-0.1-1-0.3-1.4-1.2-1.6c-0.2-0.1-0.6-0.1-0.9-0.1
		s-0.5-0.1-0.5-0.3s0.2-0.3,0.6-0.3c1.3,0,3.1,0.1,3.9,0.1c0.7,0,2.7-0.1,3.8-0.1c0.4,0,0.6,0.1,0.6,0.3s-0.2,0.3-0.5,0.3
		s-0.8,0-1.1,0.1c-0.8,0.1-1,0.6-1,1.6c-0.1,0.9-0.1,1.7-0.1,6L111.7,49.9"/>
	<path class="st1" d="M126.5,57.8c-0.5-0.2-0.5-0.3-0.5-1c0-1.6,0.1-3.2,0.1-3.7c0-0.4,0.1-0.7,0.3-0.7c0.3,0,0.3,0.3,0.3,0.5
		c0,0.4,0.1,1,0.3,1.4c0.6,2.1,2.3,2.8,4,2.8c2.5,0,3.8-1.7,3.8-3.2c0-1.4-0.4-2.7-2.8-4.5l-1.3-1c-3.1-2.4-4.2-4.4-4.2-6.7
		c0-3.1,2.6-5.3,6.5-5.3c1.8,0,3,0.3,3.7,0.5c0.3,0.1,0.4,0.1,0.4,0.3c0,0.4-0.1,1.2-0.1,3.4c0,0.6-0.1,0.8-0.3,0.8
		s-0.3-0.2-0.3-0.5s-0.1-1.1-0.7-1.9c-0.4-0.5-1.2-1.4-3.1-1.4c-2.1,0-3.4,1.2-3.4,2.9c0,1.3,0.6,2.3,3,4.1l0.8,0.6
		c3.4,2.6,4.6,4.5,4.6,7.2c0,1.6-0.6,3.6-2.6,4.9c-1.4,0.9-3,1.2-4.5,1.2C128.9,58.5,127.7,58.3,126.5,57.8"/>
	<path class="st1" d="M218,45.8c0.1,0,0.2-0.1,0.2-0.2V45c0-4.3,0-5.1-0.1-6c-0.1-1-0.3-1.4-1.2-1.6c-0.2-0.1-0.7-0.1-1.1-0.1
		c-0.3,0-0.5-0.1-0.5-0.3s0.2-0.3,0.6-0.3c1.5,0,3.3,0.1,4.1,0.1c0.7,0,2.5-0.1,3.6-0.1c0.4,0,0.6,0.1,0.6,0.3s-0.2,0.3-0.5,0.3
		c-0.2,0-0.5,0-0.8,0.1c-0.8,0.1-1,0.6-1,1.6c-0.1,0.9-0.1,1.7-0.1,6v5c0,2.6,0,4.8,0.1,6c0.1,0.8,0.3,1.4,1.1,1.5
		c0.4,0.1,1,0.1,1.4,0.1c0.3,0,0.4,0.1,0.4,0.2c0,0.2-0.2,0.3-0.6,0.3c-1.8,0-3.6-0.1-4.4-0.1c-0.6,0-2.4,0.1-3.5,0.1
		c-0.4,0-0.6-0.1-0.6-0.3c0-0.1,0.1-0.2,0.4-0.2c0.4,0,0.8-0.1,1-0.1c0.6-0.1,0.7-0.7,0.8-1.5c0.1-1.2,0.1-3.4,0.1-6v-2.5
		c0-0.1-0.1-0.2-0.2-0.2H207c-0.1,0-0.2,0-0.2,0.2V50c0,2.6,0,4.8,0.1,6c0.1,0.8,0.3,1.4,1.1,1.5c0.4,0.1,1,0.1,1.4,0.1
		c0.3,0,0.5,0.1,0.5,0.2c0,0.2-0.2,0.3-0.6,0.3c-1.8,0-3.6-0.1-4.4-0.1c-0.6,0-2.4,0.1-3.6,0.1c-0.4,0-0.6-0.1-0.6-0.3
		c0-0.1,0.1-0.2,0.5-0.2s0.8-0.1,1-0.1c0.6-0.1,0.7-0.7,0.8-1.5c0.1-1.2,0.1-3.4,0.1-6v-5c0-4.3,0-5.1-0.1-6c-0.1-1-0.3-1.4-1.2-1.6
		c-0.2-0.1-0.7-0.1-1.1-0.1c-0.3,0-0.5-0.1-0.5-0.3s0.2-0.3,0.6-0.3c1.5,0,3.3,0.1,4.1,0.1c0.7,0,2.5-0.1,3.6-0.1
		c0.4,0,0.6,0.1,0.6,0.3s-0.2,0.3-0.5,0.3c-0.2,0-0.5,0-0.8,0.1c-0.8,0.1-1,0.6-1,1.6c-0.1,0.9-0.1,1.7-0.1,6v0.6
		c0,0.1,0.1,0.2,0.2,0.2H218"/>
	<path class="st1" d="M233.8,45c0-4.3,0-5.1-0.1-6c-0.1-1-0.3-1.4-1.2-1.6c-0.2-0.1-0.7-0.1-1.1-0.1c-0.3,0-0.5-0.1-0.5-0.3
		s0.2-0.3,0.6-0.3c0.8,0,1.6,0,2.3,0s1.4,0.1,1.8,0.1c0.9,0,6.5,0,7,0c0.5-0.1,1-0.1,1.2-0.2c0.1,0,0.3-0.1,0.5-0.1
		c0.1,0,0.2,0.1,0.2,0.3s-0.1,0.5-0.2,1.8c0,0.3-0.1,1.5-0.1,1.9c0,0.1-0.1,0.3-0.3,0.3s-0.3-0.1-0.3-0.4c0-0.2,0-0.7-0.2-1
		c-0.2-0.5-0.5-0.8-1.9-1c-0.5-0.1-3.4-0.1-4-0.1c-0.1,0-0.2,0.1-0.2,0.3v7.1c0,0.2,0,0.3,0.2,0.3c0.6,0,3.9,0,4.5-0.1
		c0.7-0.1,1.1-0.1,1.4-0.4c0.2-0.2,0.3-0.4,0.5-0.4c0.1,0,0.2,0.1,0.2,0.2s-0.1,0.6-0.2,2.1c0,0.6-0.1,1.7-0.1,1.9s0,0.5-0.3,0.5
		c-0.2,0-0.3-0.1-0.3-0.3c0-0.3,0-0.6-0.1-1c-0.1-0.6-0.5-1-1.6-1.1c-0.5-0.1-3.3-0.1-4-0.1c-0.1,0-0.2,0.1-0.2,0.3v2.2
		c0,1,0,3.5,0,4.4c0.1,1.9,0.5,2.4,3.4,2.4c0.7,0,1.9,0,2.6-0.3c0.7-0.3,1.1-0.9,1.3-2.1c0.1-0.3,0.1-0.4,0.3-0.4s0.2,0.2,0.2,0.5
		c0,0.6-0.2,2.6-0.4,3.1c-0.2,0.7-0.5,0.7-1.5,0.7c-2.1,0-3.7-0.1-4.9-0.1c-1.2-0.1-2.1-0.1-2.9-0.1c-0.3,0-0.9,0-1.6,0
		c-0.6,0-1.4,0.1-1.9,0.1c-0.4,0-0.6-0.1-0.6-0.3c0-0.1,0.1-0.2,0.5-0.2s0.8-0.1,1-0.1c0.6-0.1,0.7-0.7,0.8-1.5
		c0.1-1.2,0.1-3.4,0.1-6L233.8,45"/>
	<path class="st1" d="M254.4,45c0-4.3,0-5.1-0.1-6c-0.1-1-0.3-1.4-1.2-1.6c-0.2-0.1-0.7-0.1-1.1-0.1c-0.3,0-0.5-0.1-0.5-0.3
		s0.2-0.3,0.6-0.3c1.5,0,3.3,0.1,3.9,0.1c1,0,3.1-0.1,4-0.1c1.8,0,3.7,0.2,5.2,1.2c0.8,0.5,1.9,2,1.9,3.9c0,2.1-0.9,4-3.7,6.3
		c2.5,3.2,4.5,5.7,6.1,7.4c1.6,1.6,2.7,1.8,3.2,1.9c0.3,0.1,0.6,0.1,0.8,0.1c0.2,0,0.3,0.1,0.3,0.2c0,0.2-0.2,0.3-0.5,0.3h-2.7
		c-1.6,0-2.3-0.1-3-0.5c-1.2-0.6-2.3-2-3.9-4.1c-1.1-1.5-2.4-3.5-2.8-3.9c-0.1-0.2-0.3-0.2-0.5-0.2l-2.5-0.1c-0.1,0-0.2,0.1-0.2,0.2
		v0.4c0,2.6,0,4.8,0.1,6c0.1,0.8,0.3,1.4,1.1,1.5c0.4,0.1,1,0.1,1.4,0.1c0.2,0,0.3,0.1,0.3,0.2c0,0.2-0.2,0.3-0.6,0.3
		c-1.6,0-3.7-0.1-4.1-0.1c-0.5,0-2.3,0.1-3.4,0.1c-0.4,0-0.6-0.1-0.6-0.3c0-0.1,0.1-0.2,0.5-0.2s0.8-0.1,1-0.1
		c0.6-0.1,0.7-0.7,0.8-1.5c0.1-1.2,0.1-3.4,0.1-6L254.4,45 M257.7,47.2c0,0.3,0.1,0.4,0.3,0.5c0.6,0.2,1.4,0.3,2.1,0.3
		c1.1,0,1.5-0.1,2-0.5c0.8-0.6,1.7-1.9,1.7-4.2c0-4-2.6-5.2-4.3-5.2c-0.7,0-1.2,0-1.5,0.1c-0.2,0.1-0.3,0.2-0.3,0.4L257.7,47.2
		L257.7,47.2z"/>
	<path class="st1" d="M273.6,47.5c0-4.8,3.2-11,11.6-11c7,0,11.4,4.1,11.4,10.5c0,6.5-4.5,11.6-11.7,11.6
		C276.9,58.5,273.6,52.4,273.6,47.5 M292.7,48c0-6.3-3.6-10.2-8.3-10.2c-3.2,0-6.9,1.8-6.9,8.8c0,5.9,3.2,10.5,8.7,10.5
		C288.2,57.1,292.7,56.1,292.7,48z"/>
	<path class="st1" d="M302.9,45c0-4.3,0-5.1-0.1-6c-0.1-1-0.3-1.4-1.2-1.6c-0.2-0.1-0.7-0.1-1.1-0.1c-0.3,0-0.5-0.1-0.5-0.3
		s0.2-0.3,0.6-0.3c0.8,0,1.6,0,2.3,0c0.7,0,1.4,0.1,1.8,0.1c0.9,0,6.5,0,7,0c0.5-0.1,1-0.1,1.2-0.2c0.1,0,0.3-0.1,0.5-0.1
		s0.2,0.1,0.2,0.3s-0.1,0.5-0.2,1.8c0,0.3-0.1,1.5-0.1,1.9c0,0.1-0.1,0.3-0.3,0.3c-0.2,0-0.3-0.1-0.3-0.4c0-0.2,0-0.7-0.2-1
		c-0.2-0.5-0.5-0.8-1.9-1c-0.5-0.1-3.4-0.1-4-0.1c-0.1,0-0.2,0.1-0.2,0.3v7.1c0,0.2,0,0.3,0.2,0.3c0.6,0,3.9,0,4.5-0.1
		c0.7-0.1,1.1-0.1,1.4-0.4c0.2-0.2,0.3-0.4,0.5-0.4c0.1,0,0.2,0.1,0.2,0.2s-0.1,0.6-0.2,2.1c0,0.6-0.1,1.7-0.1,1.9s0,0.5-0.3,0.5
		c-0.2,0-0.3-0.1-0.3-0.3c0-0.3,0-0.6-0.1-1c-0.1-0.6-0.5-1-1.6-1.1c-0.5-0.1-3.3-0.1-4-0.1c-0.1,0-0.2,0.1-0.2,0.3v2.2
		c0,1,0,3.5,0,4.4c0.1,1.9,0.5,2.4,3.4,2.4c0.7,0,1.9,0,2.6-0.3s1.1-0.9,1.3-2.1c0.1-0.3,0.1-0.4,0.3-0.4c0.2,0,0.2,0.2,0.2,0.5
		c0,0.6-0.2,2.6-0.4,3.1c-0.2,0.7-0.5,0.7-1.5,0.7c-2.1,0-3.7-0.1-4.9-0.1c-1.2-0.1-2.1-0.1-2.9-0.1c-0.3,0-0.9,0-1.6,0
		c-0.6,0-1.4,0.1-1.9,0.1c-0.4,0-0.6-0.1-0.6-0.3c0-0.1,0.1-0.2,0.5-0.2s0.8-0.1,1-0.1c0.6-0.1,0.7-0.7,0.8-1.5
		c0.1-1.2,0.1-3.4,0.1-6L302.9,45"/>
	<path class="st1" d="M322,57.8c-0.5-0.2-0.5-0.3-0.5-1c0-1.6,0.1-3.2,0.1-3.7c0-0.4,0.1-0.7,0.3-0.7c0.3,0,0.3,0.3,0.3,0.5
		c0,0.4,0.1,1,0.3,1.4c0.6,2.1,2.3,2.8,4,2.8c2.5,0,3.8-1.7,3.8-3.2c0-1.4-0.4-2.7-2.8-4.5l-1.3-1c-3.1-2.4-4.2-4.4-4.2-6.7
		c0-3.1,2.6-5.3,6.5-5.3c1.8,0,3,0.3,3.7,0.5c0.3,0.1,0.4,0.1,0.4,0.3c0,0.4-0.1,1.2-0.1,3.4c0,0.6-0.1,0.8-0.3,0.8
		c-0.2,0-0.3-0.2-0.3-0.5s-0.1-1.1-0.7-1.9c-0.4-0.5-1.2-1.4-3.1-1.4c-2.1,0-3.4,1.2-3.4,2.9c0,1.3,0.6,2.3,3,4.1l0.8,0.6
		c3.4,2.6,4.6,4.5,4.6,7.2c0,1.6-0.6,3.6-2.6,4.9c-1.4,0.9-3,1.2-4.5,1.2C324.4,58.5,323.2,58.3,322,57.8"/>
	<path class="st2" d="M186,31.6V21.1c0,0-5.2-2.9-16.7-2.9s-16.7,2.9-16.7,2.9v10.4"/>
	<path class="st0" d="M169.4,24.7c0,0-5.2-4.3-10.4-0.2s-1.5,16.4,10.4,23.4c11.9-7,15.6-19.3,10.4-23.4
		C174.6,20.4,169.4,24.7,169.4,24.7"/>
	<path class="st1" d="M183.9,32.6v-1.5c0-1.7,0-3-3-3h-23.1c-3,0-3,1.3-3,3v1.5H183.9"/>
	<polyline class="st2" points="188,39.8 183.1,39.8 183.1,35 155.6,35 155.6,39.8 150.8,39.8 150.8,30.2 188,30.2 188,39.8 	"/>
	<path class="st1" d="M161,48.1c0,1,0,1.7,0.1,2.1c0,0.3,0.1,0.5,0.4,0.5c0.1,0,0.4,0,0.5,0s0.2,0,0.2,0.1s-0.1,0.1-0.2,0.1
		c-0.6,0-1.3,0-1.5,0s-0.9,0-1.3,0c-0.1,0-0.2,0-0.2-0.1c0,0,0-0.1,0.1-0.1s0.3,0,0.4,0c0.2,0,0.2-0.3,0.3-0.5
		c0.1-0.4,0.1-1.2,0.1-2.1v-1.7c0-1.5,0-1.8,0-2.1s-0.1-0.5-0.4-0.6c-0.1,0-0.2,0-0.4,0c-0.1,0-0.2,0-0.2-0.1s0.1-0.1,0.2-0.1
		c0.3,0,0.5,0,0.8,0s0.5,0,0.6,0c0.4,0,2.4,0,2.6,0c0.2,0,0.3,0,0.4,0c0.1,0,0.1-0.1,0.2-0.1c0,0,0.1,0,0.1,0.1s-0.1,0.2-0.1,0.4
		c0,0.1,0,0.7-0.1,0.8c0,0.1,0,0.1-0.1,0.1s-0.1,0-0.1-0.2c0-0.1,0-0.2-0.1-0.4c-0.1-0.1-0.3-0.3-0.7-0.3h-1.5c-0.1,0-0.1,0-0.1,0.1
		v2.5c0,0.1,0,0.1,0.1,0.1h1.3c0.2,0,0.3,0,0.4,0c0.2,0,0.3,0,0.4-0.2c0-0.1,0.1-0.1,0.1-0.1s0.1,0,0.1,0.1s-0.1,0.3-0.1,0.6
		c0,0.2,0,0.7,0,0.7c0,0.1,0,0.2-0.1,0.2s-0.1-0.1-0.1-0.1s0-0.2-0.1-0.3s-0.2-0.3-0.5-0.4c-0.2,0-1.3,0-1.5,0c-0.1,0-0.1,0-0.1,0.1
		L161,48.1"/>
	<path class="st1" d="M165,47.2c0-1.7,1.1-3.9,4.1-3.9c2.5,0,4,1.4,4,3.7s-1.6,4.1-4.1,4.1C166.1,51.1,165,48.9,165,47.2
		 M171.7,47.4c0-2.2-1.3-3.6-2.9-3.6c-1.1,0-2.4,0.6-2.4,3.1c0,2.1,1.1,3.7,3.1,3.7C170.1,50.6,171.7,50.2,171.7,47.4z"/>
	<path class="st1" d="M175.3,46.3c0-1.5,0-1.8,0-2.1s-0.1-0.5-0.4-0.6c-0.1,0-0.2,0-0.4,0c-0.1,0-0.2,0-0.2-0.1s0.1-0.1,0.2-0.1
		c0.5,0,1.2,0,1.4,0c0.3,0,1.1,0,1.4,0c0.6,0,1.3,0.1,1.8,0.4c0.3,0.2,0.7,0.7,0.7,1.4s-0.3,1.4-1.3,2.2c0.9,1.1,1.6,2,2.2,2.6
		c0.6,0.6,1,0.6,1.1,0.7c0.1,0,0.2,0,0.3,0s0.1,0,0.1,0.1s-0.1,0.1-0.2,0.1h-1c-0.6,0-0.8-0.1-1.1-0.2c-0.4-0.2-0.8-0.7-1.4-1.5
		c-0.4-0.5-0.9-1.2-1-1.4c-0.1-0.1-0.1-0.1-0.2-0.1h-0.9c-0.1,0-0.1,0-0.1,0.1V48c0,0.9,0,1.7,0.1,2.1c0,0.3,0.1,0.5,0.4,0.5
		c0.1,0,0.4,0,0.5,0s0.1,0,0.1,0.1s-0.1,0.1-0.2,0.1c-0.6,0-1.3,0-1.5,0s-0.8,0-1.2,0c-0.1,0-0.2,0-0.2-0.1c0,0,0-0.1,0.2-0.1
		c0.1,0,0.3,0,0.4,0c0.2,0,0.2-0.3,0.3-0.5c0-0.4,0-1.2,0-2.1L175.3,46.3 M176.5,47.1c0,0.1,0,0.1,0.1,0.2c0.2,0.1,0.5,0.1,0.8,0.1
		c0.4,0,0.5,0,0.7-0.2c0.3-0.2,0.6-0.7,0.6-1.5c0-1.4-0.9-1.8-1.5-1.8c-0.2,0-0.4,0-0.5,0s-0.1,0.1-0.1,0.1L176.5,47.1L176.5,47.1z"
		/>
</g>
<g>
	<path class="st1" d="M32.7,89.9V78.5h5c2.4,0,3.7,1.6,3.7,3.6s-1.3,3.6-3.7,3.6h-3v4.2C34.7,89.9,32.7,89.9,32.7,89.9z M39.3,82.1
		c0-1.1-0.8-1.8-1.9-1.8h-2.7v3.6h2.7C38.5,83.9,39.3,83.2,39.3,82.1z"/>
	<path class="st1" d="M42.8,89.9v-8.2h1.8v1.2c0.6-0.8,1.6-1.4,2.7-1.4v1.8c-0.2,0-0.3-0.1-0.6-0.1c-0.7,0-1.8,0.5-2.1,1.1v5.6H42.8
		z"/>
	<path class="st1" d="M48.1,85.8c0-2.3,1.6-4.3,4.2-4.3c2.6,0,4.2,2,4.2,4.3c0,2.4-1.6,4.3-4.2,4.3C49.7,90.1,48.1,88.1,48.1,85.8z
		 M54.7,85.8c0-1.4-0.9-2.7-2.4-2.7s-2.4,1.3-2.4,2.7c0,1.5,0.9,2.7,2.4,2.7S54.7,87.2,54.7,85.8z"/>
	<path class="st1" d="M58.2,92l0.8-1.3c0.7,0.8,1.5,1.1,2.6,1.1c1.2,0,2.4-0.5,2.4-2.2v-1c-0.6,0.8-1.6,1.4-2.6,1.4
		c-2.1,0-3.6-1.5-3.6-4.2s1.5-4.2,3.6-4.2c1,0,2,0.5,2.6,1.3v-1.1h1.8v7.8c0,3-2.2,3.8-4.2,3.8C60.3,93.2,59.2,92.9,58.2,92z
		 M64.1,87.2v-3.1C63.7,83.5,62.8,83,62,83c-1.4,0-2.3,1.1-2.3,2.6c0,1.6,0.9,2.6,2.3,2.6C62.8,88.3,63.7,87.8,64.1,87.2z"/>
	<path class="st1" d="M68.1,89.9v-8.2h1.8v1.2c0.6-0.8,1.6-1.4,2.7-1.4v1.8c-0.2,0-0.3-0.1-0.6-0.1c-0.7,0-1.8,0.5-2.1,1.1v5.6H68.1
		z"/>
	<path class="st1" d="M78.9,89.9V89c-0.6,0.7-1.6,1.1-2.7,1.1c-1.3,0-2.9-0.9-2.9-2.7c0-1.9,1.5-2.7,2.9-2.7c1.1,0,2.1,0.4,2.7,1.1
		v-1.2c0-1-0.8-1.5-1.9-1.5c-0.9,0-1.7,0.3-2.4,1l-0.7-1.2c1-0.9,2.1-1.3,3.5-1.3c1.8,0,3.4,0.8,3.4,3V90h-1.9V89.9z M78.9,88v-1.2
		c-0.4-0.6-1.2-0.8-2-0.8c-1,0-1.8,0.6-1.8,1.5s0.7,1.5,1.8,1.5C77.8,88.9,78.5,88.6,78.9,88z"/>
	<path class="st1" d="M93,89.9v-5.4c0-0.9-0.4-1.5-1.3-1.5c-0.8,0-1.5,0.6-1.9,1.1v5.7H88v-5.4c0-0.9-0.4-1.5-1.4-1.5
		c-0.8,0-1.5,0.6-1.9,1.1v5.7h-1.8v-8.2h1.8v1.1c0.3-0.5,1.4-1.3,2.7-1.3c1.2,0,2,0.6,2.2,1.5c0.5-0.7,1.6-1.5,2.8-1.5
		c1.5,0,2.4,0.8,2.4,2.5v5.9H93V89.9z"/>
	<path class="st1" d="M101,85.8c0-2.3,1.6-4.3,4.2-4.3s4.2,2,4.2,4.3c0,2.4-1.6,4.3-4.2,4.3C102.6,90.1,101,88.1,101,85.8z
		 M107.6,85.8c0-1.4-0.8-2.7-2.4-2.7c-1.5,0-2.4,1.3-2.4,2.7c0,1.5,0.9,2.7,2.4,2.7S107.6,87.2,107.6,85.8z"/>
	<path class="st1" d="M111.5,89.9v-6.6h-1.4v-1.6h1.4v-0.5c0-1.8,1-2.8,2.6-2.8c0.7,0,1.5,0.2,2,0.7l-0.7,1.1
		c-0.2-0.2-0.5-0.4-1-0.4c-0.7,0-1.1,0.5-1.1,1.4v0.5h1.7v1.6h-1.7v6.6C113.3,89.9,111.5,89.9,111.5,89.9z"/>
	<path class="st1" d="M120.8,89.9V78.5h7.8v1.8h-5.8v2.9h5.7V85h-5.7v4.9H120.8z"/>
	<path class="st1" d="M129.9,79.6c0-0.6,0.5-1.1,1.1-1.1s1.1,0.5,1.1,1.1s-0.5,1.1-1.1,1.1S129.9,80.2,129.9,79.6z M130.1,89.9v-8.2
		h1.8v8.2H130.1z"/>
	<path class="st1" d="M133.5,88.8l0.8-1.3c0.6,0.6,1.7,1.2,2.8,1.2s1.6-0.5,1.6-1.1c0-1.6-5-0.5-5-3.6c0-1.3,1.2-2.5,3.2-2.5
		c1.4,0,2.4,0.5,3.2,1.2l-0.7,1.3c-0.5-0.6-1.4-1-2.4-1c-0.9,0-1.5,0.4-1.5,1c0,1.5,5,0.4,5,3.6c0,1.4-1.2,2.5-3.4,2.5
		C135.6,90.1,134.3,89.6,133.5,88.8z"/>
	<path class="st1" d="M147.7,89.9v-5.2c0-1.3-0.7-1.7-1.7-1.7c-0.9,0-1.7,0.5-2.1,1.1v5.7h-1.8V78.5h1.8v4.2
		c0.5-0.6,1.6-1.3,2.9-1.3c1.8,0,2.7,0.9,2.7,2.6v5.8h-1.8V89.9z"/>
	<path class="st1" d="M151.2,85.8c0-2.4,1.7-4.3,4.2-4.3s4,1.9,4,4.5v0.4h-6.3c0.1,1.2,1.1,2.3,2.6,2.3c0.8,0,1.8-0.3,2.3-0.9
		l0.8,1.2c-0.8,0.8-2,1.2-3.3,1.2C153,90.1,151.2,88.4,151.2,85.8z M155.4,82.9c-1.5,0-2.2,1.2-2.3,2.2h4.6
		C157.6,84.1,157,82.9,155.4,82.9z"/>
	<path class="st1" d="M161.1,89.9v-8.2h1.8v1.2c0.6-0.8,1.6-1.4,2.7-1.4v1.8c-0.2,0-0.3-0.1-0.6-0.1c-0.7,0-1.8,0.5-2.1,1.1v5.6
		H161.1z"/>
	<path class="st1" d="M179.3,89.9V85h-5.9v4.9h-2V78.5h2v4.6h5.9v-4.6h2v11.3L179.3,89.9L179.3,89.9z"/>
	<path class="st1" d="M183.2,85.8c0-2.3,1.6-4.3,4.2-4.3c2.6,0,4.2,2,4.2,4.3c0,2.4-1.6,4.3-4.2,4.3
		C184.8,90.1,183.2,88.1,183.2,85.8z M189.8,85.8c0-1.4-0.8-2.7-2.4-2.7c-1.5,0-2.4,1.3-2.4,2.7c0,1.5,0.8,2.7,2.4,2.7
		S189.8,87.2,189.8,85.8z"/>
	<path class="st1" d="M198.9,89.9v-1.1c-0.6,0.7-1.6,1.3-2.9,1.3c-1.8,0-2.6-0.9-2.6-2.6v-5.8h1.8v5.2c0,1.3,0.6,1.7,1.6,1.7
		c0.9,0,1.7-0.5,2.1-1.1v-5.8h1.8v8.2C200.7,89.9,198.9,89.9,198.9,89.9z"/>
	<path class="st1" d="M202.3,88.8l0.8-1.3c0.6,0.6,1.7,1.2,2.8,1.2s1.6-0.5,1.6-1.1c0-1.6-5-0.5-5-3.6c0-1.3,1.2-2.5,3.2-2.5
		c1.4,0,2.4,0.5,3.2,1.2l-0.7,1.3c-0.5-0.6-1.4-1-2.4-1c-0.9,0-1.5,0.4-1.5,1c0,1.5,5,0.4,5,3.6c0,1.4-1.2,2.5-3.4,2.5
		C204.4,90.1,203.2,89.6,202.3,88.8z"/>
	<path class="st1" d="M210.5,85.8c0-2.4,1.7-4.3,4.2-4.3s4,1.9,4,4.5v0.4h-6.3c0.1,1.2,1.1,2.3,2.6,2.3c0.8,0,1.8-0.3,2.3-0.9
		l0.8,1.2c-0.8,0.8-2,1.2-3.3,1.2C212.3,90.1,210.5,88.4,210.5,85.8z M214.6,82.9c-1.5,0-2.2,1.2-2.3,2.2h4.6
		C216.9,84.1,216.2,82.9,214.6,82.9z"/>
	<path class="st1" d="M224.9,89.9V78.5h7.8v1.8h-5.8v2.9h5.7V85h-5.7v4.9H224.9z"/>
	<path class="st1" d="M233.8,85.8c0-2.3,1.6-4.3,4.2-4.3c2.6,0,4.2,2,4.2,4.3c0,2.4-1.6,4.3-4.2,4.3
		C235.4,90.1,233.8,88.1,233.8,85.8z M240.4,85.8c0-1.4-0.8-2.7-2.4-2.7c-1.5,0-2.4,1.3-2.4,2.7c0,1.5,0.8,2.7,2.4,2.7
		C239.6,88.5,240.4,87.2,240.4,85.8z"/>
	<path class="st1" d="M249.5,89.9v-1.1c-0.6,0.7-1.6,1.3-2.9,1.3c-1.8,0-2.6-0.9-2.6-2.6v-5.8h1.8v5.2c0,1.3,0.6,1.7,1.6,1.7
		c0.9,0,1.7-0.5,2.1-1.1v-5.8h1.8v8.2C251.3,89.9,249.5,89.9,249.5,89.9z"/>
	<path class="st1" d="M259.1,89.9v-5.1c0-1.3-0.6-1.7-1.6-1.7c-0.9,0-1.7,0.5-2.1,1.1v5.7h-1.8v-8.2h1.8v1.1
		c0.5-0.6,1.6-1.3,2.9-1.3c1.8,0,2.7,1,2.7,2.6v5.8H259.1z"/>
	<path class="st1" d="M268.9,89.9v-1.1c-0.6,0.8-1.6,1.3-2.6,1.3c-2.1,0-3.7-1.6-3.7-4.3c0-2.7,1.5-4.3,3.7-4.3c1,0,2,0.5,2.6,1.3
		v-4.3h1.8v11.3L268.9,89.9L268.9,89.9z M268.9,87.4v-3.3c-0.4-0.6-1.3-1.1-2.1-1.1c-1.4,0-2.3,1.1-2.3,2.7s0.9,2.7,2.3,2.7
		C267.6,88.5,268.5,88,268.9,87.4z"/>
	<path class="st1" d="M278,89.9V89c-0.6,0.7-1.6,1.1-2.7,1.1c-1.3,0-2.9-0.9-2.9-2.7c0-1.9,1.5-2.7,2.9-2.7c1.1,0,2.1,0.4,2.7,1.1
		v-1.2c0-1-0.8-1.5-1.9-1.5c-0.9,0-1.7,0.3-2.4,1l-0.7-1.2c1-0.9,2.1-1.3,3.5-1.3c1.8,0,3.4,0.8,3.4,3V90H278V89.9z M278,88v-1.2
		c-0.4-0.6-1.2-0.8-2-0.8c-1,0-1.8,0.6-1.8,1.5s0.7,1.5,1.8,1.5C276.8,88.9,277.5,88.6,278,88z"/>
	<path class="st1" d="M282.3,88v-4.7H281v-1.6h1.4v-2.2h1.8v2.2h1.7v1.6h-1.7v4.3c0,0.6,0.3,1,0.8,1c0.3,0,0.7-0.1,0.8-0.3l0.4,1.3
		c-0.3,0.3-0.9,0.5-1.7,0.5C283,90.1,282.3,89.3,282.3,88z"/>
	<path class="st1" d="M287.1,79.6c0-0.6,0.5-1.1,1.1-1.1s1.1,0.5,1.1,1.1s-0.5,1.1-1.1,1.1S287.1,80.2,287.1,79.6z M287.4,89.9v-8.2
		h1.8v8.2H287.4z"/>
	<path class="st1" d="M290.8,85.8c0-2.3,1.6-4.3,4.2-4.3s4.2,2,4.2,4.3c0,2.4-1.6,4.3-4.2,4.3C292.4,90.1,290.8,88.1,290.8,85.8z
		 M297.4,85.8c0-1.4-0.8-2.7-2.4-2.7c-1.5,0-2.4,1.3-2.4,2.7c0,1.5,0.8,2.7,2.4,2.7S297.4,87.2,297.4,85.8z"/>
	<path class="st1" d="M306.6,89.9v-5.1c0-1.3-0.6-1.7-1.6-1.7c-0.9,0-1.7,0.5-2.1,1.1v5.7H301v-8.2h1.8v1.1c0.5-0.6,1.6-1.3,2.9-1.3
		c1.8,0,2.7,1,2.7,2.6v5.8H306.6z"/>
</g>
</svg>
