<?xml version="1.0" encoding="utf-8"?>
<!-- Generator: Adobe Illustrator 25.2.0, SVG Export Plug-In . SVG Version: 6.00 Build 0)  -->
<svg version="1.1" id="Layer_1" xmlns="http://www.w3.org/2000/svg" xmlns:xlink="http://www.w3.org/1999/xlink" x="0px" y="0px"
	 viewBox="0 0 82.7 79.2" style="enable-background:new 0 0 82.7 79.2;" xml:space="preserve">
<style type="text/css">
	.st0{fill:#FFFFFF;}
</style>
<g>
	<path class="st0" d="M48.4,79.2h34.3v-49L52.2,1.3c-0.3-0.3-3.1-2.7-5.7-0.3C44,3.4,45.7,7,46.1,7.7l18.7,18.2
		c1.1-1.1,2.8-1.9,4.9-1.8c1.4,0.1,2.6,0.6,3.5,1.6c1.7,2,1.5,4.9,1.5,5.1l0,22.2h-2V30.7c0-0.1,0.1-2.4-1-3.7
		c-0.5-0.6-1.2-0.9-2.1-0.9c-3.6-0.2-5.2,3.8-5.2,3.9c0,0-2.1,6.7-2.4,15.6c-0.4,4.3-2,5.9-5.3,8.9c-0.2,0.2-0.5,0.4-0.7,0.7
		C52.6,58.1,47.2,62.9,48.4,79.2z"/>
	<path class="st0" d="M36.3,1.1c-2.6-2.4-5.4,0-5.7,0.3L0,30.2v49h34.3c1.2-16.3-4.2-21.1-7.5-24c-0.3-0.2-0.5-0.5-0.7-0.7
		c-3.3-3-4.8-4.6-5.2-8.9C20.5,36.7,18.4,30,18.4,30c0-0.1-1.6-4.1-5.2-3.9c-0.9,0.1-1.6,0.4-2.1,0.9c-1.2,1.3-1,3.6-1,3.6L10,53H8
		V30.7c0-0.1-0.2-3,1.5-5c0.9-1,2-1.5,3.5-1.6c2.2-0.1,3.8,0.7,4.9,1.8L36.7,7.7C37,7,38.8,3.4,36.3,1.1z"/>
</g>
</svg>
