<?xml version="1.0" encoding="utf-8"?>
<!-- Generator: Adobe Illustrator 15.0.0, SVG Export Plug-In . SVG Version: 6.00 Build 0)  -->
<!DOCTYPE svg PUBLIC "-//W3C//DTD SVG 1.1//EN" "http://www.w3.org/Graphics/SVG/1.1/DTD/svg11.dtd">
<svg version="1.1" id="Layer_1" xmlns="http://www.w3.org/2000/svg" xmlns:xlink="http://www.w3.org/1999/xlink" x="0px" y="0px"
	 width="28px" height="28px" viewBox="14 14 28 28" enable-background="new 14 14 28 28" xml:space="preserve">
<g>
	<path id="keypad" fill="#FFFFFF" d="M30.133,24h-4.266C24.836,24,24,24.836,24,25.867v4.266C24,31.164,24.836,32,25.868,32h4.266
		C31.165,32,32,31.164,32,30.133v-4.266C32,24.836,31.165,24,30.133,24z M20.132,14h-4.264C14.837,14,14,14.836,14,15.866v4.268
		C14,21.164,14.837,22,15.869,22h4.264C21.164,22,22,21.164,22,20.134v-4.268C22,14.836,21.164,14,20.132,14z M20.132,24h-4.264
		C14.837,24,14,24.836,14,25.867v4.266C14,31.164,14.837,32,15.869,32h4.264C21.164,32,22,31.164,22,30.133v-4.266
		C22,24.836,21.164,24,20.132,24z M20.132,34h-4.264C14.837,34,14,34.837,14,35.869v4.262C14,41.163,14.837,42,15.869,42h4.264
		C21.164,42,22,41.163,22,40.131v-4.262C22,34.837,21.164,34,20.132,34z M30.133,34h-4.266C24.836,34,24,34.837,24,35.869v4.262
		C24,41.163,24.836,42,25.868,42h4.266C31.165,42,32,41.163,32,40.131v-4.262C32,34.837,31.165,34,30.133,34z M40.134,24h-4.268
		C34.836,24,34,24.836,34,25.867v4.266C34,31.164,34.836,32,35.867,32h4.268C41.165,32,42,31.164,42,30.133v-4.266
		C42,24.836,41.165,24,40.134,24z M40.134,14h-4.268C34.836,14,34,14.836,34,15.866v4.268C34,21.164,34.836,22,35.867,22h4.268
		C41.165,22,42,21.164,42,20.134v-4.268C42,14.836,41.165,14,40.134,14z M30.133,14h-4.266C24.836,14,24,14.836,24,15.866v4.268
		C24,21.164,24.836,22,25.868,22h4.266C31.165,22,32,21.164,32,20.134v-4.268C32,14.836,31.165,14,30.133,14z M40.134,34h-4.268
		C34.836,34,34,34.837,34,35.869v4.262C34,41.163,34.836,42,35.867,42h4.268C41.165,42,42,41.163,42,40.131v-4.262
		C42,34.837,41.165,34,40.134,34z"/>
</g>
</svg>
