<?xml version="1.0" encoding="utf-8"?>
<!-- Generator: Adobe Illustrator 15.0.0, SVG Export Plug-In . SVG Version: 6.00 Build 0)  -->
<!DOCTYPE svg PUBLIC "-//W3C//DTD SVG 1.1//EN" "http://www.w3.org/Graphics/SVG/1.1/DTD/svg11.dtd">
<svg version="1.1" id="Layer_1" xmlns="http://www.w3.org/2000/svg" xmlns:xlink="http://www.w3.org/1999/xlink" x="0px" y="0px"
	 width="612px" height="612px" viewBox="0 0 612 612" enable-background="new 0 0 612 612" xml:space="preserve">
<circle fill="#004B8D" stroke="#F4C182" stroke-width="10" stroke-miterlimit="10" cx="306" cy="306" r="297"/>
<g>
	<path fill="#FFFFFF" stroke="#EE3124" stroke-width="11" stroke-miterlimit="10" d="M345.979,372.553
		c1.303-19.578,9.676-37.217,22.604-50.382c10.625-13.525,16.986-30.559,16.986-49.092c0-43.95-35.629-79.579-79.579-79.579
		s-79.579,35.629-79.579,79.579c0,18.533,6.361,35.566,16.988,49.092c12.926,13.165,21.299,30.804,22.603,50.382l0.199,55.263
		c0,9.767,8.38,17.685,13.263,17.685h53.053c4.883,0,13.263-7.918,13.263-17.685L345.979,372.553z"/>
	
		<line fill="none" stroke="#EE3124" stroke-width="11" stroke-miterlimit="10" x1="286.096" y1="392.447" x2="325.885" y2="392.447"/>
	
		<line fill="none" stroke="#EE3124" stroke-width="11" stroke-miterlimit="10" x1="286.096" y1="418.974" x2="325.885" y2="418.974"/>
</g>
<g>
	<path fill="#FFFFFF" d="M321.52,76.927l-1.681,51.962l-16.524-0.535l1.684-51.963L321.52,76.927z"/>
	<path fill="#FFFFFF" d="M140.09,443.668l37.693-35.808l11.386,11.985l-37.694,35.81L140.09,443.668z"/>
	<path fill="#FFFFFF" d="M526.746,309.825l-51.973-0.934l0.297-16.529l51.973,0.934L526.746,309.825z"/>
	<path fill="#FFFFFF" d="M157.403,133.758l36.357,37.162l-11.82,11.558l-36.356-37.16L157.403,133.758z"/>
	<path fill="#FFFFFF" d="M467.571,146.569l-36.649,36.885l-11.729-11.653l36.652-36.885L467.571,146.569z"/>
	<path fill="#FFFFFF" d="M84.958,291.606l51.99-0.568l0.18,16.53l-51.99,0.567L84.958,291.606z"/>
	<path fill="#FFFFFF" d="M459.255,456.847l-37.411-36.097l11.48-11.893l37.41,36.097L459.255,456.847z"/>
</g>
</svg>
