<?xml version="1.0" encoding="utf-8"?>
<!-- Generator: Adobe Illustrator 21.1.0, SVG Export Plug-In . SVG Version: 6.00 Build 0)  -->
<svg version="1.1" id="Layer_1" xmlns="http://www.w3.org/2000/svg" xmlns:xlink="http://www.w3.org/1999/xlink" x="0px" y="0px"
	 viewBox="0 0 49.2 49.2" style="enable-background:new 0 0 49.2 49.2;" xml:space="preserve">
<style type="text/css">
	.st0{fill:#6699CC;}
</style>
<path class="st0" d="M24.6,0C11,0,0,11,0,24.6c0,13.6,11,24.6,24.6,24.6c13.6,0,24.6-11,24.6-24.6C49.2,11,38.2,0,24.6,0z
	 M17.2,38.1h-6.6V18.6h6.6V38.1z M14.2,16.1c-2,0-3.6-1.6-3.6-3.6s1.6-3.6,3.6-3.6s3.6,1.6,3.6,3.6S16.2,16.1,14.2,16.1z M40.7,38
	H34V27.4c0,0,0-4.3-3.2-4.3s-3.5,3.2-3.5,4.5c0,1.3,0,10.5,0,10.5h-6.5V18.6h6.5v2.8c0,0,2.5-3.6,5.5-3.6s7.9,2.2,7.9,6.7
	S40.7,38,40.7,38z"/>
</svg>
