<?xml version="1.0" encoding="utf-8"?>
<!-- Generator: Adobe Illustrator 15.0.0, SVG Export Plug-In . SVG Version: 6.00 Build 0)  -->
<!DOCTYPE svg PUBLIC "-//W3C//DTD SVG 1.1//EN" "http://www.w3.org/Graphics/SVG/1.1/DTD/svg11.dtd">
<svg version="1.1" id="Layer_1" xmlns="http://www.w3.org/2000/svg" xmlns:xlink="http://www.w3.org/1999/xlink" x="0px" y="0px"
	 width="184.939px" height="184.939px" viewBox="0 0 184.939 184.939" enable-background="new 0 0 184.939 184.939"
	 xml:space="preserve">
<g>
	<path fill="#004B8D" d="M92.471,1.131c50.443,0,91.338,40.895,91.338,91.34c0,50.443-40.895,91.338-91.338,91.338
		c-50.445,0-91.34-40.895-91.34-91.338C1.131,42.026,42.026,1.131,92.471,1.131"/>
	<circle fill="none" stroke="#F4C082" stroke-width="2.262" cx="92.471" cy="92.47" r="91.339"/>
	<path fill="#FFFFFF" d="M92.471,155.471c34.703,0,62.836-28.133,62.836-62.836s-28.133-62.838-62.836-62.838
		c-34.705,0-62.838,28.135-62.838,62.838S57.766,155.471,92.471,155.471"/>
	<circle fill="none" stroke="#FDC689" stroke-width="1.508" cx="92.471" cy="92.634" r="62.837"/>
	<path fill="#F9DCBA" d="M26.809,71.215l-0.566-0.252c0.261-0.646,0.377-1.139,0.345-1.475c-0.049-0.515-0.392-0.916-1.031-1.199
		l-10.773-4.793c-0.645-0.287-1.17-0.275-1.575,0.03c-0.248,0.185-0.541,0.601-0.88,1.248l-0.567-0.25l5.613-12.623l4.491,1.998
		l-0.243,0.543c-1.505-0.34-2.681-0.307-3.527,0.097c-0.844,0.406-1.656,1.487-2.435,3.24c-0.291,0.653-0.401,1.1-0.331,1.344
		c0.069,0.244,0.307,0.455,0.711,0.635l5.155,2.293c0.556-1.193,0.664-2.119,0.324-2.779c-0.34-0.659-1.041-1.356-2.106-2.088
		l0.252-0.567l7.524,3.346l-0.252,0.566c-1.27-0.382-2.283-0.466-3.039-0.252c-0.756,0.217-1.401,0.922-1.93,2.118l5.186,2.306
		c0.687,0.305,1.215,0.299,1.578-0.021c0.363-0.319,0.722-0.895,1.074-1.729l0.565,0.252L26.809,71.215z"/>
	<path fill="#F9DCBA" d="M31.704,59.033l-0.516-0.342c0.37-0.584,0.573-1.043,0.614-1.377c0.06-0.551-0.211-1.025-0.813-1.424
		l-9.832-6.511c-0.601-0.399-1.133-0.471-1.598-0.215c-0.283,0.154-0.638,0.527-1.068,1.117l-0.517-0.342l4.707-7.101l0.515,0.34
		c-0.394,0.652-0.611,1.136-0.65,1.455c-0.057,0.531,0.217,1,0.826,1.402l9.83,6.514c0.57,0.375,1.055,0.468,1.457,0.277
		c0.402-0.189,0.813-0.602,1.234-1.238l0.516,0.341L31.704,59.033z"/>
	<path fill="#F9DCBA" d="M38.068,50.859l-4.447-4.076l0.472-0.518c1.608,0.936,3.014,1.356,4.221,1.262
		c1.205-0.096,2.195-0.564,2.967-1.404c0.75-0.819,1.074-1.594,0.973-2.323c-0.102-0.726-0.385-1.302-0.846-1.726
		c-0.537-0.492-1.145-0.715-1.815-0.662c-0.443,0.035-1.173,0.252-2.195,0.65l-1.648,0.637c-1.635,0.633-2.95,0.928-3.946,0.887
		c-0.996-0.041-1.904-0.44-2.73-1.196c-0.875-0.804-1.406-1.867-1.592-3.193c-0.184-1.326,0.32-2.637,1.51-3.936
		c0.607-0.66,1.291-1.209,2.055-1.642c0.765-0.436,1.187-0.698,1.267-0.783c0.184-0.2,0.25-0.389,0.207-0.571
		c-0.043-0.179-0.139-0.381-0.283-0.597l0.492-0.536l3.91,3.586l-0.457,0.5c-1.127-0.591-2.295-0.884-3.506-0.879
		c-1.209,0.004-2.209,0.44-3.002,1.305c-0.558,0.608-0.834,1.24-0.828,1.899c0.006,0.656,0.246,1.201,0.721,1.634
		c0.566,0.52,1.143,0.743,1.73,0.666c0.586-0.064,1.674-0.406,3.264-1.025l1.906-0.74c0.85-0.328,1.62-0.506,2.309-0.53
		c1.289-0.044,2.418,0.377,3.391,1.268c0.906,0.83,1.431,1.973,1.58,3.424c0.146,1.455-0.504,2.971-1.951,4.551
		c-0.331,0.361-0.702,0.697-1.108,1.007c-0.41,0.309-0.848,0.581-1.322,0.815l-0.453,0.23c-0.098,0.061-0.19,0.121-0.274,0.184
		c-0.084,0.064-0.15,0.121-0.199,0.174c-0.172,0.187-0.234,0.367-0.191,0.535c0.045,0.17,0.14,0.371,0.293,0.605L38.068,50.859z"/>
	<path fill="#F9DCBA" d="M45.239,41.812l-0.355-0.51c0.515-0.396,0.841-0.734,0.978-1.011c0.227-0.467,0.137-0.991-0.266-1.569
		l-6.734-9.68c-0.394-0.566-0.828-0.835-1.301-0.806c-0.283,0.023-0.742,0.211-1.375,0.564l-0.353-0.508l6.769-4.709l0.354,0.508
		c-0.565,0.44-0.916,0.803-1.059,1.084c-0.232,0.473-0.146,0.996,0.258,1.576l2.879,4.141l4.768-3.314l-2.881-4.143
		c-0.405-0.578-0.854-0.844-1.354-0.799c-0.307,0.031-0.777,0.238-1.41,0.619l-0.354-0.507l6.809-4.735l0.354,0.506
		c-0.555,0.455-0.897,0.816-1.026,1.09c-0.217,0.453-0.127,0.963,0.272,1.537l6.734,9.68c0.408,0.586,0.883,0.845,1.424,0.777
		c0.314-0.035,0.746-0.229,1.293-0.58l0.353,0.508l-6.806,4.736l-0.356-0.508c0.561-0.42,0.912-0.779,1.059-1.084
		c0.226-0.467,0.14-0.986-0.258-1.56l-3.207-4.61l-4.768,3.317l3.207,4.609c0.415,0.592,0.893,0.854,1.442,0.781
		c0.316-0.046,0.758-0.252,1.324-0.617l0.354,0.508L45.239,41.812z"/>
	<path fill="#F9DCBA" d="M74.277,25.774l-13.291,5.121l-0.223-0.576c0.643-0.274,1.071-0.541,1.285-0.801
		c0.331-0.4,0.372-0.926,0.12-1.576l-4.239-11.004c-0.257-0.666-0.648-1.029-1.173-1.092c-0.305-0.043-0.795,0.043-1.469,0.26
		l-0.221-0.578l13.1-5.047l1.767,4.586l-0.554,0.213c-0.854-1.354-1.731-2.168-2.631-2.442c-0.899-0.273-2.264-0.058-4.092,0.645
		c-0.697,0.27-1.111,0.512-1.244,0.73c-0.133,0.217-0.117,0.54,0.049,0.969l2.027,5.264c1.301-0.485,2.088-1.059,2.361-1.721
		c0.27-0.66,0.282-1.683,0.03-3.064l0.578-0.223l2.959,7.684l-0.578,0.222c-0.663-1.232-1.344-2.017-2.047-2.353
		c-0.705-0.338-1.705-0.258-2.998,0.242l2.121,5.508c0.185,0.479,0.433,0.76,0.75,0.84c0.314,0.078,0.857-0.032,1.627-0.328
		c1.451-0.559,2.527-1.297,3.228-2.213c0.701-0.916,1.11-2.286,1.225-4.106l0.633-0.244L74.277,25.774z"/>
	<path fill="#F9DCBA" d="M79.454,10.449c-0.05-0.369,0.014-0.648,0.192-0.838c0.177-0.187,0.59-0.326,1.234-0.414
		c1.188-0.162,2.066,0.186,2.641,1.045c0.334,0.506,0.564,1.227,0.691,2.164c0.209,1.524,0.002,2.543-0.621,3.057
		c-0.623,0.512-1.723,0.889-3.299,1.129L79.454,10.449z M83.55,24.625l-0.082-0.613c-0.854,0.084-1.441-0.002-1.766-0.258
		c-0.322-0.256-0.541-0.807-0.658-1.656L80.4,17.369l0.636-0.086l6.041,6.86l4.94-0.674l-0.078-0.578
		c-0.225,0.015-0.414,0.002-0.571-0.037c-0.158-0.038-0.316-0.143-0.474-0.313l-5.797-6.211c0.803-0.268,1.537-0.736,2.197-1.404
		c0.865-0.887,1.205-1.985,1.027-3.297c-0.242-1.777-1.376-2.875-3.404-3.295c-1.045-0.201-2.373-0.193-3.982,0.027l-7.77,1.061
		l0.082,0.613c0.836-0.041,1.385,0.016,1.647,0.172c0.392,0.234,0.652,0.818,0.779,1.756l1.457,10.67
		c0.123,0.894,0.053,1.496-0.209,1.804c-0.262,0.309-0.801,0.538-1.611,0.688l0.084,0.613L83.55,24.625z"/>
	<path fill="#F9DCBA" d="M99.643,23.738l0.143-0.602c0.641,0.12,1.109,0.139,1.406,0.053c0.498-0.14,0.83-0.556,0.994-1.242
		l2.729-11.473c0.158-0.67,0.07-1.174-0.266-1.506c-0.205-0.197-0.65-0.412-1.338-0.648l0.146-0.602l8.022,1.909l-0.145,0.601
		c-0.705-0.125-1.209-0.148-1.516-0.066c-0.504,0.14-0.838,0.555-1.002,1.24l-1.166,4.908l5.646,1.346l1.17-4.908
		c0.16-0.688,0.059-1.201-0.309-1.541c-0.227-0.209-0.695-0.422-1.4-0.639l0.143-0.603l8.068,1.921l-0.145,0.602
		c-0.707-0.111-1.207-0.123-1.496-0.037c-0.48,0.137-0.801,0.547-0.963,1.224l-2.729,11.471c-0.164,0.696-0.043,1.223,0.367,1.58
		c0.238,0.213,0.666,0.405,1.295,0.578l-0.145,0.602l-8.066-1.92l0.143-0.602c0.686,0.139,1.189,0.161,1.514,0.067
		c0.496-0.141,0.828-0.553,0.992-1.233l1.297-5.462l-5.646-1.344l-1.303,5.463c-0.168,0.703-0.041,1.234,0.383,1.595
		c0.242,0.204,0.689,0.397,1.342,0.575l-0.145,0.603L99.643,23.738z"/>
	<path fill="#F9DCBA" d="M123.311,27.167c0.232-1.201,0.797-2.634,1.693-4.304c0.885-1.643,1.76-2.893,2.625-3.75
		c1.641-1.612,3.271-1.983,4.895-1.11c1.166,0.627,1.779,1.703,1.836,3.229c0.059,1.527-0.531,3.433-1.756,5.717
		c-0.896,1.662-1.781,2.923-2.658,3.785c-1.627,1.584-3.244,1.943-4.85,1.08C123.473,30.944,122.877,29.393,123.311,27.167
		 M126.217,16.516c-2.189,0.688-3.889,2.156-5.098,4.404c-1.1,2.041-1.359,4.143-0.785,6.307c0.623,2.309,2.082,4.078,4.371,5.31
		c2.16,1.161,4.334,1.43,6.523,0.807c2.246-0.639,3.975-2.086,5.186-4.342c1.215-2.257,1.471-4.498,0.768-6.724
		c-0.68-2.166-2.104-3.832-4.27-4.998C130.662,16.071,128.432,15.814,126.217,16.516"/>
	<path fill="#F9DCBA" d="M143.793,24.18l6.068,5.564l-0.416,0.456c-0.721-0.616-1.281-0.932-1.691-0.954
		c-0.41-0.023-0.934,0.313-1.566,1.002l-5.508,6.01c-0.836,0.912-1.373,1.717-1.611,2.412c-0.457,1.283-0.125,2.434,0.986,3.451
		c1.379,1.266,2.779,1.608,4.205,1.03c0.781-0.315,1.637-0.977,2.564-1.991l5.033-5.49c0.59-0.644,0.875-1.195,0.861-1.656
		c-0.014-0.459-0.344-1.031-0.986-1.717l0.42-0.457l3.947,3.619l-0.416,0.455c-0.676-0.414-1.182-0.625-1.51-0.632
		c-0.334-0.008-0.764,0.277-1.293,0.857l-5.268,5.746c-1.4,1.525-2.848,2.367-4.342,2.524c-1.502,0.154-3.039-0.493-4.617-1.94
		c-2.066-1.891-2.91-3.803-2.543-5.732c0.199-1.026,0.771-2.055,1.719-3.09l5.506-6.01c0.621-0.68,0.926-1.189,0.906-1.527
		c-0.018-0.338-0.309-0.83-0.869-1.473L143.793,24.18z"/>
	<path fill="#F9DCBA" d="M144.775,48.266l4.916-3.496l0.404,0.572c-1.248,1.377-1.953,2.664-2.111,3.863
		c-0.162,1.198,0.09,2.262,0.752,3.196c0.643,0.904,1.332,1.383,2.064,1.435c0.734,0.053,1.354-0.103,1.867-0.466
		c0.594-0.422,0.938-0.967,1.025-1.633c0.059-0.442,0-1.201-0.176-2.285l-0.277-1.745c-0.275-1.73-0.289-3.078-0.043-4.043
		c0.246-0.964,0.83-1.771,1.738-2.419c0.973-0.69,2.125-0.987,3.459-0.889c1.334,0.097,2.512,0.865,3.533,2.299
		c0.516,0.73,0.91,1.515,1.176,2.353s0.434,1.307,0.502,1.404c0.154,0.219,0.328,0.327,0.512,0.321
		c0.184-0.006,0.4-0.057,0.643-0.151l0.422,0.592l-4.324,3.074l-0.393-0.552c0.812-0.977,1.344-2.059,1.594-3.243
		c0.246-1.183,0.031-2.255-0.648-3.21c-0.479-0.672-1.039-1.075-1.686-1.207c-0.643-0.129-1.227-0.01-1.75,0.363
		c-0.625,0.445-0.963,0.963-1.012,1.551c-0.059,0.587,0.049,1.724,0.32,3.41l0.324,2.015c0.145,0.901,0.154,1.692,0.035,2.371
		c-0.223,1.27-0.875,2.286-1.947,3.049c-1.002,0.713-2.229,0.989-3.682,0.828c-1.453-0.16-2.799-1.111-4.039-2.857
		c-0.285-0.402-0.535-0.834-0.756-1.297c-0.215-0.463-0.391-0.951-0.521-1.461l-0.129-0.492c-0.037-0.107-0.08-0.211-0.123-0.307
		c-0.043-0.095-0.088-0.172-0.127-0.23c-0.146-0.207-0.309-0.307-0.482-0.299s-0.393,0.059-0.654,0.158L144.775,48.266z"/>
	<path fill="#F9DCBA" d="M158.004,70.99l-5.736-13.037l0.566-0.25c0.301,0.629,0.59,1.045,0.859,1.246
		c0.412,0.314,0.939,0.328,1.58,0.047l10.795-4.746c0.652-0.287,0.998-0.696,1.033-1.223c0.031-0.308-0.078-0.793-0.324-1.455
		l0.566-0.248l5.652,12.852l-4.5,1.978l-0.24-0.545c1.312-0.914,2.086-1.828,2.316-2.74c0.232-0.912-0.045-2.266-0.836-4.059
		c-0.301-0.683-0.561-1.086-0.785-1.209c-0.221-0.123-0.543-0.091-0.965,0.094l-5.162,2.272c0.545,1.275,1.152,2.035,1.826,2.277
		c0.674,0.24,1.693,0.203,3.064-0.113l0.248,0.566l-7.535,3.314l-0.25-0.566c1.199-0.719,1.951-1.437,2.254-2.154
		c0.307-0.719,0.176-1.715-0.381-2.985l-5.4,2.375c-0.475,0.207-0.742,0.471-0.805,0.789c-0.066,0.319,0.068,0.854,0.402,1.612
		c0.625,1.422,1.41,2.461,2.361,3.121c0.945,0.656,2.33,1,4.154,1.029l0.275,0.623L158.004,70.99z"/>
	<polygon fill="#F9DCBA" points="17.461,82.785 16.834,87.857 13.928,83.348 8.32,84.26 12.154,80.607 9.324,76.123 14.535,78.398 
		18.454,74.701 17.833,79.756 22.918,81.941 	"/>
	<polygon fill="#F9DCBA" points="7.564,98.701 7.343,96.443 22.536,94.953 22.755,97.209 16.777,97.795 17.21,102.234 
		23.191,101.648 23.415,103.914 8.223,105.404 8,103.139 14.643,102.486 14.208,98.049 	"/>
	<polygon fill="#F9DCBA" points="10.996,117.568 8.916,109.257 23.725,105.554 25.752,113.662 23.246,114.29 21.769,108.38 
		18.488,109.201 19.859,114.691 17.365,115.316 15.992,109.824 11.963,110.833 13.49,116.941 	"/>
	<polygon fill="#F9DCBA" points="15.07,128.193 12.117,120.836 26.167,115.197 27.009,117.3 15.347,121.982 17.458,127.236 	"/>
	<path fill="#F9DCBA" d="M29.887,129.332c0.043,0.315-0.037,0.645-0.24,0.988c-0.201,0.348-0.524,0.643-0.963,0.895
		c-0.436,0.246-0.85,0.373-1.244,0.373c-0.395,0.004-0.725-0.096-0.989-0.291c-0.265-0.197-0.605-0.666-1.023-1.398l-0.621-1.09
		l3.764-2.145l0.547,0.963C29.588,128.447,29.844,129.018,29.887,129.332 M22.555,130.09l0.736,1.295
		c0.68,1.195,1.293,1.963,1.832,2.303c0.541,0.336,1.227,0.486,2.061,0.441s1.73-0.34,2.689-0.883
		c1.057-0.603,1.813-1.283,2.266-2.043c0.455-0.758,0.619-1.486,0.494-2.183c-0.082-0.436-0.459-1.246-1.133-2.43l-1.808-3.174
		l-13.262,7.555l1.121,1.973L22.555,130.09z"/>
	
		<rect x="28.167" y="129.718" transform="matrix(0.5794 0.815 -0.815 0.5794 124.2642 33.8827)" fill="#F9DCBA" width="2.268" height="15.263"/>
	<polygon fill="#F9DCBA" points="27.123,147.057 25.719,145.471 37.146,135.354 38.611,137.01 34.037,147.219 41.668,140.458 
		43.072,142.044 31.644,152.166 30.129,150.453 34.574,140.458 	"/>
	<path fill="#F9DCBA" d="M44.174,155.676l-2.012-1.654l1.633-1.987l3.785,3.114l-3.861,4.695c-0.793,0.184-1.686,0.168-2.68-0.045
		c-0.996-0.219-1.845-0.617-2.549-1.195c-0.859-0.707-1.423-1.567-1.693-2.573c-0.271-1.009-0.213-2.14,0.174-3.392
		c0.385-1.248,1.099-2.508,2.139-3.772c1.066-1.296,2.173-2.246,3.322-2.849c1.146-0.604,2.217-0.877,3.213-0.821
		c0.994,0.053,1.922,0.436,2.785,1.147c1.039,0.852,1.627,1.83,1.769,2.932c0.141,1.101-0.166,2.293-0.921,3.574l-2.1-0.987
		c0.367-0.71,0.51-1.371,0.428-1.98c-0.082-0.605-0.366-1.109-0.85-1.506c-0.746-0.615-1.617-0.789-2.611-0.523
		c-0.996,0.263-2.037,1.058-3.125,2.381c-1.17,1.421-1.807,2.707-1.914,3.861c-0.096,0.99,0.222,1.787,0.957,2.389
		c0.341,0.283,0.771,0.488,1.287,0.609c0.517,0.125,1.049,0.15,1.594,0.076L44.174,155.676z"/>
	<polygon fill="#F9DCBA" points="51.85,167.332 49.95,166.394 56.696,152.701 59.748,154.205 56.977,164.449 63.395,156.004 
		66.455,157.51 59.707,171.201 57.816,170.27 63.126,159.492 55.809,169.281 53.842,168.312 57.161,156.553 	"/>
	
		<rect x="65.506" y="157.873" transform="matrix(0.9431 0.3324 -0.3324 0.9431 58.801 -12.7403)" fill="#F9DCBA" width="2.268" height="15.261"/>
	<polygon fill="#F9DCBA" points="76.039,176.055 68.344,174.149 71.982,159.453 74.185,160 71.164,172.198 76.658,173.557 	"/>
	
		<rect x="79.777" y="161.398" transform="matrix(0.9893 0.1456 -0.1456 0.9893 25.481 -9.9816)" fill="#F9DCBA" width="2.266" height="15.267"/>
	<polygon fill="#F9DCBA" points="88.959,177.445 86.693,177.326 87.357,164.662 84.016,164.488 84.15,161.908 93.088,162.375 
		92.953,164.953 89.621,164.779 	"/>
	<path fill="#F9DCBA" d="M98.715,165.525l2.035,5.508l-3.062,0.27L98.715,165.525z M97.229,162.082l-3.035,15.586l2.406-0.209
		l0.623-3.533l4.48-0.395l1.281,3.367l2.465-0.214l-5.822-14.813L97.229,162.082z"/>
	<path fill="#F9DCBA" d="M109.14,162.859c0.987-0.24,1.595-0.349,1.817-0.328c0.32,0.037,0.599,0.18,0.838,0.422
		c0.238,0.246,0.42,0.603,0.533,1.076c0.121,0.494,0.133,0.906,0.037,1.246c-0.1,0.338-0.271,0.59-0.521,0.754
		s-0.875,0.371-1.875,0.615l-1.639,0.401l-0.922-3.76L109.14,162.859z M108.91,169.41l0.455-0.109
		c0.51-0.125,0.896-0.162,1.15-0.106c0.26,0.055,0.527,0.203,0.805,0.445c0.278,0.243,0.85,0.877,1.711,1.903l2.393,2.832
		l2.632-0.643l-2.04-2.568c-0.816-1.029-1.436-1.729-1.855-2.1c-0.418-0.373-0.912-0.689-1.479-0.951
		c0.879-0.408,1.482-1.027,1.811-1.857c0.326-0.832,0.346-1.826,0.063-2.985c-0.228-0.918-0.582-1.666-1.071-2.244
		c-0.49-0.578-1.02-0.933-1.595-1.076c-0.575-0.141-1.458-0.064-2.647,0.225l-4.65,1.14l3.635,14.823l2.201-0.541L108.91,169.41z"/>
	<polygon fill="#F9DCBA" points="125.525,170.779 123.43,171.636 120.994,165.691 113.832,159.074 116.293,158.066 121.037,162.648 
		121.162,156.074 123.58,155.084 123.104,164.854 	"/>
	<polygon fill="#F9DCBA" points="138.037,164.184 136.146,165.434 127.717,152.71 134.154,148.446 135.58,150.598 131.033,153.612 
		133.027,156.623 136.959,154.021 138.383,156.174 134.455,158.775 	"/>
	<path fill="#F9DCBA" d="M140.836,147.439l4.916,3.209l-2.299,2.039L140.836,147.439z M137.59,145.559l6.848,14.328l1.811-1.605
		l-1.609-3.209l3.367-2.985l3.037,1.94l1.848-1.643l-13.5-8.422L137.59,145.559z"/>
	<polygon fill="#F9DCBA" points="156.227,148.629 154.895,150.272 143.045,140.654 145.186,138.016 154.557,142.988 
		147.752,134.854 149.898,132.207 161.75,141.826 160.422,143.463 151.094,135.891 159.008,145.203 157.629,146.904 
		146.898,141.057 	"/>
	
		<rect x="156.6" y="126.176" transform="matrix(0.5345 -0.8452 0.8452 0.5345 -39.6631 195.6046)" fill="#F9DCBA" width="2.269" height="15.262"/>
	<polygon fill="#F9DCBA" points="170.119,127.016 166.539,134.083 153.033,127.248 154.059,125.223 165.27,130.9 167.828,125.852 	
		"/>
	<polygon fill="#F9DCBA" points="171.889,122.422 171.064,124.535 156.848,118.969 157.678,116.859 	"/>
	<polygon fill="#F9DCBA" points="175.383,111.043 173.092,119.295 158.385,115.207 160.623,107.152 163.111,107.846 161.48,113.713 
		164.74,114.619 166.256,109.166 168.734,109.854 167.219,115.307 171.221,116.42 172.906,110.354 	"/>
	<path fill="#F9DCBA" d="M171.047,107.568l-0.002-2.24c1.965,0.002,3.039-0.686,3.215-2.061c0.09-0.681-0.041-1.242-0.387-1.683
		c-0.342-0.444-0.809-0.7-1.393-0.778c-0.346-0.043-0.646-0.013-0.906,0.092c-0.258,0.104-0.48,0.287-0.674,0.547
		c-0.189,0.258-0.539,0.898-1.043,1.924c-0.447,0.918-0.889,1.576-1.324,1.972c-0.438,0.399-0.98,0.688-1.631,0.872
		c-0.65,0.183-1.33,0.228-2.039,0.136c-0.824-0.105-1.547-0.371-2.164-0.795c-0.617-0.422-1.055-0.953-1.314-1.591
		c-0.26-0.639-0.334-1.395-0.221-2.27c0.17-1.313,0.697-2.287,1.586-2.92c0.887-0.635,2.07-0.879,3.545-0.732l-0.156,2.277
		c-0.822-0.008-1.42,0.133-1.785,0.42c-0.367,0.285-0.59,0.732-0.67,1.34c-0.078,0.607,0.004,1.092,0.244,1.457
		c0.238,0.367,0.568,0.574,0.988,0.629c0.414,0.054,0.779-0.049,1.102-0.311c0.32-0.262,0.719-0.904,1.195-1.933
		c0.51-1.086,1.002-1.856,1.467-2.309c0.471-0.453,1.039-0.772,1.711-0.955c0.672-0.184,1.461-0.217,2.371-0.1
		c1.312,0.17,2.369,0.678,3.172,1.522c0.802,0.844,1.102,2.041,0.9,3.59C176.479,106.406,174.551,107.708,171.047,107.568"/>
	<polygon fill="#F9DCBA" points="167.922,81.881 167.488,76.783 171.256,80.596 176.545,78.539 173.549,82.914 177.24,86.717 
		171.678,85.57 168.613,90.004 168.184,84.926 162.766,83.838 	"/>
	<path fill="#004B8D" d="M142.111,110.394c0.676,0,1.325,0.169,1.947,0.508c0.621,0.339,1.109,0.825,1.465,1.457
		c0.355,0.632,0.533,1.294,0.533,1.985c0,0.687-0.174,1.342-0.522,1.967c-0.349,0.624-0.835,1.11-1.458,1.459
		c-0.624,0.348-1.278,0.523-1.965,0.523s-1.342-0.175-1.965-0.523c-0.623-0.349-1.11-0.835-1.458-1.459
		c-0.349-0.625-0.522-1.28-0.522-1.967c0-0.691,0.178-1.353,0.533-1.985c0.355-0.632,0.844-1.118,1.465-1.457
		C140.785,110.563,141.435,110.394,142.111,110.394 M142.116,111.176c-0.542,0-1.063,0.135-1.562,0.407
		c-0.498,0.271-0.891,0.661-1.177,1.169c-0.287,0.509-0.431,1.041-0.431,1.597c0,0.553,0.14,1.08,0.42,1.582
		c0.28,0.501,0.67,0.892,1.172,1.174c0.502,0.282,1.027,0.422,1.577,0.422c0.554,0,1.08-0.14,1.58-0.422
		c0.5-0.282,0.891-0.673,1.172-1.174c0.282-0.502,0.423-1.029,0.423-1.582c0-0.556-0.144-1.088-0.431-1.597
		c-0.286-0.508-0.68-0.898-1.18-1.169C143.181,111.311,142.659,111.176,142.116,111.176 M140.33,116.457v-4.18h0.851
		c0.798,0,1.245,0.004,1.341,0.01c0.282,0.024,0.501,0.08,0.658,0.168c0.156,0.087,0.287,0.221,0.392,0.4
		c0.104,0.18,0.157,0.38,0.157,0.6c0,0.301-0.099,0.56-0.297,0.773c-0.197,0.214-0.476,0.347-0.833,0.399
		c0.127,0.048,0.225,0.1,0.294,0.156c0.068,0.057,0.163,0.164,0.283,0.322c0.031,0.041,0.134,0.21,0.31,0.509l0.493,0.843h-1.055
		l-0.348-0.68c-0.236-0.456-0.432-0.743-0.586-0.861s-0.35-0.178-0.587-0.178h-0.222v1.719H140.33z M141.182,114.082h0.346
		c0.493,0,0.799-0.019,0.918-0.057c0.119-0.037,0.213-0.103,0.281-0.197c0.069-0.095,0.104-0.201,0.104-0.321
		c0-0.116-0.033-0.22-0.101-0.312c-0.068-0.09-0.163-0.155-0.287-0.195c-0.124-0.039-0.429-0.059-0.915-0.059h-0.346V114.082z"/>
	<path fill="#004B8D" d="M60.34,98.438V76.167c0,0-0.395-5.352,4.039-5.616c4.434-0.261,6.242,4.567,6.242,4.567
		s2.129,6.765,2.494,15.896c0.366,3.778,1.678,5.221,4.93,8.211c3.252,2.99,10.15,7.555,8.473,26.443H50.291V75.249l30.875-29.198
		c0,0,3.674-3.414,7.059-0.263c3.385,3.15,0.525,7.949,0.525,7.949L69.338,72.65"/>
	<path fill="none" stroke="#F4C082" stroke-width="1.885" stroke-miterlimit="3.864" d="M60.34,98.438V76.167
		c0,0-0.395-5.352,4.039-5.616c4.434-0.261,6.242,4.567,6.242,4.567s2.129,6.765,2.494,15.896c0.366,3.778,1.678,5.221,4.93,8.211
		c3.252,2.99,10.15,7.555,8.473,26.443H50.291V75.249l30.875-29.198c0,0,3.674-3.414,7.059-0.263
		c3.385,3.15,0.525,7.949,0.525,7.949L69.338,72.65"/>
	<path fill="#EE3224" d="M92.658,70.158c0,0-7.059-5.879-14.088-0.262c-7.031,5.614-2.041,22.27,14.088,31.793
		c16.131-9.523,21.119-26.179,14.088-31.793C99.717,64.279,92.658,70.158,92.658,70.158"/>
	<path fill="none" stroke="#F4C082" stroke-width="1.508" d="M92.658,70.158c0,0-7.059-5.879-14.088-0.262
		c-7.031,5.614-2.041,22.27,14.088,31.793c16.131-9.523,21.119-26.179,14.088-31.793C99.717,64.279,92.658,70.158,92.658,70.158z"/>
	<path fill="#004B8D" d="M124.979,98.438V76.167c0,0,0.391-5.352-4.041-5.616c-4.436-0.261-6.242,4.567-6.242,4.567
		s-2.129,6.765-2.492,15.896c-0.367,3.778-1.68,5.221-4.934,8.211c-3.25,2.99-10.148,7.555-8.471,26.443h36.225V75.249
		L104.15,46.051c0,0-3.674-3.414-7.059-0.263c-3.383,3.15-0.525,7.949-0.525,7.949l19.412,18.914"/>
	<path fill="none" stroke="#F4C082" stroke-width="1.885" stroke-miterlimit="3.864" d="M124.979,98.438V76.167
		c0,0,0.391-5.352-4.041-5.616c-4.436-0.261-6.242,4.567-6.242,4.567s-2.129,6.765-2.492,15.896
		c-0.367,3.778-1.68,5.221-4.934,8.211c-3.25,2.99-10.148,7.555-8.471,26.443h36.225V75.249L104.15,46.051
		c0,0-3.674-3.414-7.059-0.263c-3.383,3.15-0.525,7.949-0.525,7.949l19.412,18.914"/>
</g>
</svg>
