<?xml version="1.0" encoding="utf-8"?>
<!-- Generator: Adobe Illustrator 15.0.0, SVG Export Plug-In . SVG Version: 6.00 Build 0)  -->
<!DOCTYPE svg PUBLIC "-//W3C//DTD SVG 1.1//EN" "http://www.w3.org/Graphics/SVG/1.1/DTD/svg11.dtd">
<svg version="1.1" id="Layer_1" xmlns="http://www.w3.org/2000/svg" xmlns:xlink="http://www.w3.org/1999/xlink" x="0px" y="0px"
	 width="28px" height="28px" viewBox="14 14 28 28" enable-background="new 14 14 28 28" xml:space="preserve">
<g>
	<path id="book_x5F_open" fill="#F4C182" d="M27,37V15.936C25.644,14.703,23.038,14,20,14c-2.344,0-4.524,0.56-6,1.447v21.063
		c1.476-0.888,3.656-1.446,6-1.446C23.038,35.064,25.644,35.768,27,37z M28.93,39h-1.859c-1.335-1.273-3.979-2-7.07-2
		c-2.344,0-4.524,0.559-6,1.447v3C15.476,40.559,17.657,40,20,40c3.043,0,5.647,0.707,7.001,1.943V42h2v-0.059
		C30.355,40.707,32.958,40,36,40c2.344,0,4.523,0.559,6,1.447v-3C40.525,37.559,38.344,37,36,37C32.91,37,30.266,37.727,28.93,39z
		 M36,14c-3.037,0-5.645,0.703-7,1.936V37c1.355-1.232,3.963-1.936,7-1.936c2.344,0,4.523,0.56,6,1.446V15.447
		C40.525,14.56,38.344,14,36,14z"/>
</g>
</svg>
