<?xml version="1.0" encoding="utf-8"?>
<!-- Generator: Adobe Illustrator 15.0.0, SVG Export Plug-In . SVG Version: 6.00 Build 0)  -->
<!DOCTYPE svg PUBLIC "-//W3C//DTD SVG 1.1//EN" "http://www.w3.org/Graphics/SVG/1.1/DTD/svg11.dtd">
<svg version="1.1" id="Layer_1" xmlns="http://www.w3.org/2000/svg" xmlns:xlink="http://www.w3.org/1999/xlink" x="0px" y="0px"
	 width="612px" height="612px" viewBox="0 0 612 612" enable-background="new 0 0 612 612" xml:space="preserve">
<circle fill="#004B8D" stroke="#F4C182" stroke-width="10" stroke-miterlimit="10" cx="306" cy="306" r="297"/>
<path id="g3074" fill="#F4C182" d="M128.304,138.804c1.477,2.336,2.758,5.42,3.376,7.935c1.998,8.552,2.054,8.984,0.131,18.203
	c-1.856,9.167-2.17,10.028-7.79,18.976c-3.536,5.768-11.169,13.895-12.557,13.526c-1.094-0.238-1.978-3.191-2.958-10.904
	c-1.373-10.02,2.252-22.845,10.414-39.275c0.8-1.543,2.228-4.667,3.24-6.963c1.013-2.295,2.061-4.522,2.257-4.909
	C125.022,134.173,125.916,134.925,128.304,138.804z M484.405,137.917c-3.201,5.095-4.656,9.061-5.293,15.189
	c-0.585,5.258,1.845,18.042,4.466,23.142c4.919,9.721,15.026,21.932,17.159,21.029c0.784-0.293,2.195-4.898,2.832-9.035
	c0.521-3.617,0.077-13.23-0.787-17.031c-1.018-4.505-4.897-14.077-9.771-24.239c-0.771-1.672-2.373-5.065-3.462-7.466
	c-1.159-2.448-2.274-4.476-2.623-4.523C486.632,134.924,485.519,136.27,484.405,137.917L484.405,137.917z M87.988,172.136
	c-0.707,0.441-2.219,7.172-2.451,10.762c-0.094,1.831-0.45,5.45-0.799,8.082c-1.65,12.01-1.247,24.962,1.147,34.532
	c1.791,7.465,7.919,17.179,11.266,17.97c1.154,0.255,1.428-0.115,2.636-3.595c2.945-8.809,4.824-24.111,4.265-34.188
	c-0.717-13.613-4.906-25.271-10.822-30.107C89.681,172.751,88.415,171.871,87.988,172.136z M521.662,173.277
	c-4.487,2.841-8.731,9.083-10.826,15.718c-4.046,13.175-3.787,33.355,1.149,49.591c1.794,5.868,2.456,6.219,5.605,2.932
	c7.408-7.819,10.577-18.221,10.68-34.728c0.08-6.75-0.29-12.899-0.724-14.646c-0.246-0.989-0.537-3.883-0.706-6.499
	c-0.168-2.616-0.776-6.729-1.374-9.114C524.328,171.995,524.035,171.762,521.662,173.277L521.662,173.277z M134.486,212.384
	c-9.557,8.335-19.659,20.712-25.296,31.234c-4.345,8.036-5.081,9.899-6.717,17.645c-2.122,10.03-1.755,14.042,2.05,21.133
	c1.53,2.823,1.713,2.92,2.737,2.087c1.169-0.91,14.855-17.904,17.226-21.32c0.707-1.026,1.83-2.585,2.426-3.389
	c0.67-0.851,1.247-1.902,1.346-2.434c0.087-0.471,0.665-1.522,1.308-2.258c1.236-1.54,3.157-5.089,5.618-10.373
	c3.989-8.542,5.906-16.73,5.685-23.653c-0.095-4.281-1.667-11.271-2.596-11.444C137.98,209.558,136.295,210.833,134.486,212.384z
	 M472.963,211.399c-1.641,3.898-2.185,12.461-1.188,18.071c1.064,5.658,5.185,16.497,7.801,20.407
	c0.682,0.972,1.276,2.144,1.363,2.615c0.087,0.473,0.682,1.644,1.368,2.614s2.108,3.147,3.18,4.776
	c5.287,8.182,19.083,25.019,20.081,24.801c1.716-0.346,4.511-6.618,5.328-12.002c0.419-2.663,0.155-5.121-1.213-11.267
	c-1.763-8.332-3.375-12.216-7.911-19.724c-1.326-2.113-2.715-4.583-3.209-5.46c-3.704-6.364-22.549-27.002-24.548-26.671
	C473.839,209.591,473.328,210.417,472.963,211.399L472.963,211.399z M71.451,215.644c-0.87,0.457-3.448,11.931-4.028,18.22
	c-0.848,8.078-1.193,15.352-0.935,19.003c0.322,5.461,0.85,10.782,1.166,11.91c1.524,5.873,2.086,7.676,3.609,11.559
	c1.843,4.653,9.424,15.896,11.79,17.455c0.688,0.523,2.336,1.875,3.696,3.033c3.518,2.981,4.397,2.674,4.779-1.598
	c1.063-10.32,0.597-29.018-0.882-38.144c-0.204-1.398-0.588-3.699-0.847-5.11c-0.479-3-1.436-7.217-2.087-9.093
	c-2.672-7.762-4.358-11.556-7.055-16.098C77.483,221.574,72.273,215.116,71.451,215.644L71.451,215.644z M536.814,219.313
	c-4.301,5.218-6.262,8.343-8.876,14.147c-5.268,11.484-7.902,26.382-7.902,44.493c0.005,6.629,0.236,14.495,0.559,17.86
	c0.343,3.787,1.239,3.851,5.524,0.39c6.849-5.564,12.919-14.327,16.037-23.048c0.846-2.301,2.825-10.881,2.672-11.463
	c-0.072-0.292,0.023-1.489,0.258-2.66c0.873-4.668,0.79-13.554-0.245-24.37c-0.609-6.405-3.502-18.851-4.369-19.062
	C540.131,215.503,538.555,217.208,536.814,219.313L536.814,219.313z M125.791,275.851c-0.708,1.028-1.455,2.597-1.619,3.481
	c-0.153,0.824-1.096,3.09-2.04,4.987c-2.61,5.246-7.607,31.582-7.117,38.081c0.932,11.093,1.689,14.832,4.45,23.367
	c2.647,8.283,9.403,21.104,11.071,21.368c1.509,0.249,4.19-4.116,6.576-10.78c0.537-1.612,1.542-4.003,2.316-5.399
	c2.028-4.051,5.397-26.893,4.745-32.034c-1.498-12.079-3.506-20.306-6.581-26.911c-0.53-1.123-1.134-2.564-1.339-3.271
	c-0.714-2.117-7.632-14.003-8.424-14.465C127.414,274.077,126.511,274.765,125.791,275.851L125.791,275.851z M480.825,279.449
	c-2.971,5.104-7.021,13.581-7.812,16.385c-0.211,0.706-0.555,1.797-0.795,2.323c-1.701,3.993-3.446,12.782-4.312,21.298
	c-0.521,5.547,2.588,26.73,4.635,30.899c0.706,1.405,1.739,3.975,2.363,5.696c1.817,5.296,4.664,10.304,6.017,10.81
	c1.037,0.317,1.498,0.118,2.171-0.905c1.069-1.691,5.69-10.326,6.425-12.044c1.376-3.032,5.327-14.587,5.203-15.179
	c-0.064-0.354,0.131-1.547,0.472-2.705c3.015-11.04,1.975-27.638-2.342-42.444c-1.488-5.089-3.217-10.135-3.741-11.195
	c-0.586-1.051-1.219-2.701-1.405-3.704c-0.362-1.945-2.023-4.259-3.151-4.419C484.155,274.217,482.447,276.541,480.825,279.449
	L480.825,279.449z M54.477,281.865c-0.781,0.667-0.054,9.151,1.344,15.314c2.261,10.272,10.041,21.666,21.798,31.343
	c2.52,2.097,4.995,4.166,5.464,4.574c3.69,3.214,24.077,17.189,25.158,17.319c1.148,0.217,1.338-0.055,1.365-2.062
	c-0.022-3.97-0.897-8.586-2.83-15.006c-3.091-10.436-11.665-21.562-24.435-32.771c-2.966-2.546-13.521-10.292-18.705-13.813
	c-1.752-1.11-3.917-2.701-4.75-3.405C57.092,281.916,55.163,281.3,54.477,281.865z M552.961,283.581
	c-1.071,0.826-2.853,2.072-3.834,2.746c-4.26,2.963-6.063,4.188-7.861,5.42c-2.766,1.961-9.697,7.368-11.92,9.268
	c-1.067,0.977-2.332,1.992-2.797,2.341c-0.833,0.548-2.585,2.356-7.55,7.454c-3.036,3.223-9.381,12.279-11.087,15.904
	c-1.845,4.156-4.699,13.066-4.484,14.245c0.078,0.41-0.135,1.855-0.46,3.075c-0.819,3.023-0.161,6.562,1.122,6.319
	c0.896-0.082,23.377-15.718,28.41-19.941c10.812-8.757,19.415-19.867,22.687-28.967c2.059-5.576,3.572-18.471,2.426-19.478
	C556.832,281.3,555.297,281.88,552.961,283.581L552.961,283.581z M58.106,331.026c-0.525,0.427-0.391,2.497,0.152,3.181
	c0.156,0.223,0.839,1.496,1.51,2.827c5.664,12.163,18.913,28.89,29.282,36.884c1.674,1.319,3.679,2.818,4.36,3.379
	c0.68,0.562,1.882,1.409,2.714,1.938c0.845,0.47,2.965,1.797,4.837,2.943c9.411,5.863,18.784,9.733,32.055,13.299
	c7.476,1.96,7.623,1.96,7.782,0.897c0.165-1.184-5.699-11.66-9.758-17.611c-4.607-6.546-17.031-20.412-20.44-22.6
	c-0.5-0.337-1.725-1.297-2.753-2.161c-2.622-2.133-8.948-6.664-10.787-7.59c-0.884-0.481-3.083-1.719-4.963-2.779
	c-5.133-2.945-12.948-6.263-20.568-8.795C59.345,330.815,58.651,330.521,58.106,331.026z M548.93,332.022
	c-18.609,5.933-27.011,9.643-38.618,17.566c-8.847,6.05-14.514,11.093-21.538,19.544c-8.277,9.897-19.058,26.746-17.339,27.875
	c0.631,0.347,12.835-2.759,18.879-4.962c10.669-3.825,16.696-6.881,26.054-13.213c4.218-2.822,12.828-9.858,13.578-11.008
	c0.17-0.219,1.46-1.593,2.934-3.072c6.275-6.235,13.552-16.421,18.357-25.634c3.724-7.232,3.964-8.165,2.611-8.268
	c-0.642-0.031-1.466,0.042-1.851,0.196C551.532,331.159,550.179,331.666,548.93,332.022L548.93,332.022z M148.743,350.997
	c-1.464,0.993-0.885,16.425,0.949,24.267c0.274,1.01,0.665,2.701,0.796,3.75c0.696,3.921,3.445,12.666,4.92,15.53
	c0.286,0.523,1.111,2.333,1.889,4.011c1.772,3.813,5.244,9.831,6.321,11.056c0.437,0.541,2.052,2.622,3.616,4.629
	c5.548,7.222,13.993,15.152,22.531,20.843c4.056,2.765,5.414,3.252,5.68,2.014c1.664-8.154-0.595-25.597-4.466-36.132
	c-1.225-3.38-4.549-10.676-5.661-12.672c-0.655-1.098-1.355-2.385-1.58-2.893c-0.879-2.269-6.193-9.214-10.709-14.312
	c-4.565-5.017-14.455-14.229-15.586-14.403c-0.271-0.038-0.967-0.5-1.44-1.052C154.363,354.011,149.197,350.705,148.743,350.997
	L148.743,350.997z M460.744,352.218c-0.992,0.754-2.31,1.671-2.817,1.987c-0.506,0.314-2.195,1.525-3.75,2.773
	c-10.188,8.04-20.413,19.056-25.501,27.771c-4.691,8.198-9.238,19.397-10.323,25.833c-0.169,1.163-0.522,3.369-0.802,4.904
	c-1.37,7.247-1.795,12.71-1.353,17.247c0.261,2.686,0.713,5.052,0.954,5.268c1.208,0.812,15.4-10.055,22.208-17.364
	c9.632-10.153,15.177-19.504,20.052-33.449c4.093-11.598,6.306-34.562,3.866-36.012
	C462.906,350.988,461.805,351.456,460.744,352.218z M95.943,390.256c-4.645-0.405-9.375-0.074-10.854,0.728
	c-0.574,0.312-1.335,0.463-1.757,0.377c-1.121-0.228-4.381,1.73-4.615,2.844c-0.166,0.716,9.076,9.152,13.072,11.862
	c0.523,0.347,1.881,1.341,2.897,2.206c1.087,0.879,2.511,1.94,3.231,2.441c0.718,0.502,3.069,2.16,5.229,3.71
	c4.665,3.454,20.119,12.945,24.489,15.113c1.718,0.88,4.067,2.031,5.167,2.624c1.171,0.604,3.817,1.794,5.933,2.589
	c2.104,0.857,5.775,2.234,8.101,3.164c6.282,2.438,23.494,4.663,28.134,3.584c5.166-1.102,5.698-1.296,6.029-2.28
	c0.423-1.164-8.333-9.033-18.947-17.414c-2.254-1.801-4.239-3.334-4.383-3.354c-0.215-0.028-2.09-1.305-4.208-2.866
	c-4.084-3.11-4.7-3.481-12.656-8.171c-8.929-5.392-16.571-9.461-20.264-10.756c-0.956-0.345-3.058-1.188-4.743-1.908
	C111.96,393.062,101.52,390.738,95.943,390.256L95.943,390.256z M502.713,392.682c-5.32,1.447-11.004,3.707-16.622,6.571
	c-2.01,1-4.503,2.188-5.445,2.641c-0.954,0.395-2.295,1.089-3.019,1.567c-0.653,0.467-3.507,2.183-6.241,3.803
	c-12.325,7.315-26.681,18.055-36.954,27.709c-4.525,4.308-4.449,5.204,0.702,6.198c12.102,2.279,32.2-2.285,49.587-11.69
	c4.312-2.373,11.623-6.578,12.547-7.229c0.525-0.394,3.401-2.223,6.321-4.142c2.933-1.855,6.209-4.162,7.243-4.962
	c1.097-0.874,2.526-1.932,3.245-2.434c0.72-0.501,2.216-1.576,3.23-2.441c1.088-0.879,2.374-1.859,2.897-2.206
	c0.523-0.346,2.76-2.124,4.957-4.029c2.199-1.904,4.091-3.452,4.304-3.495c0.211-0.043,1.151-0.849,2.135-1.785
	c2.718-2.522,2.034-3.97-2.493-5.365c-2.172-0.596-4.239-1.1-4.66-1.015c-0.421,0.084-1.685-0.029-2.828-0.292
	C519.037,389.568,508.994,390.958,502.713,392.682z M209.286,408.143c-0.365,0.087-1.593,0.221-2.674,0.304
	c-2.598,0.248-2.742,1.74-0.587,4.945c0.885,1.344,1.892,2.998,2.191,3.687c0.301,0.688,1.118,2.083,1.82,3.167
	c0.708,1.023,1.526,2.478,1.902,3.17c0.376,0.694,1.204,2.086,1.914,3.168c0.715,1.021,1.544,2.472,1.926,3.164
	s1.151,2.017,1.807,2.97c0.582,0.947,2.285,3.485,3.662,5.691c6.418,9.934,17.22,21.32,25.408,26.948
	c4.981,3.442,12.212,6.519,18.113,7.683c5.897,1.225,8.091,0.974,8.437-0.755c0.426-1.848-2.076-9.054-4.992-14.969
	c-2.707-5.49-4.102-7.759-7.444-12.451c-1.115-1.483-1.939-2.779-1.933-2.957c0.008-0.182-2.293-3.035-5.126-6.348
	c-8.719-10.296-19.712-19.423-28.291-23.362C220.838,410.137,211.464,407.742,209.286,408.143L209.286,408.143z M393.549,409.806
	c-7.345,2.191-9.395,3.243-17.297,8.861c-8.94,6.276-18.495,16.348-25.656,27.003c-1.436,2.163-7.624,13.418-8.759,15.906
	c-1.734,3.955-3.43,10.421-2.953,11.427c0.631,1.12,3.719,1.102,9.537-0.187c14.325-3.035,28.917-14.587,42.071-33.907
	c2.75-3.979,11.09-17.536,11.656-18.981c0.244-0.502,0.998-1.831,1.701-2.855c0.696-1.084,1.448-2.355,1.691-2.859
	c0.171-0.496,0.865-1.581,1.505-2.425c1.541-2.008,0.797-3.019-2.396-3.517C401.104,407.802,399.343,408.02,393.549,409.806
	L393.549,409.806z M142.698,446.052c-2.469-0.048-6.811-0.138-9.724-0.276c-17.34-0.559-31.321,3.545-37.789,11.514
	c-0.682,0.79-0.982,1.588-0.705,1.761c0.95,0.675,13.84,4.762,23.88,7.325c14.716,4.058,48.305,8.447,57.43,7.803
	c14.636-0.732,25.718-3.438,32.385-7.629c4.452-2.88,5.042-3.859,2.886-4.937c-2.947-1.608-15.689-5.543-25.131-8.056
	C172.312,450.09,151.07,446.269,142.698,446.052L142.698,446.052z M450.495,448.273c-0.572,0.192-5.013,1.175-9.836,2.1
	c-8.331,1.639-15.686,3.379-22.947,5.59c-1.817,0.537-4.439,1.265-5.827,1.632c-5.68,1.609-12.337,4.434-12.269,5.329
	c0.058,0.779,5.708,4.65,9.167,6.148c3.052,1.305,10.984,3.512,13.979,3.81c1.301,0.11,3.38,0.382,4.612,0.556
	c1.314,0.227,5.609,0.56,9.584,0.657c10.026,0.524,41.959-3.68,56.677-7.719c11.879-3.055,23.213-6.773,23.934-7.457
	c1.667-1.702-9.547-9.472-15.423-10.732c-1.743-0.431-3.788-0.878-4.419-1.018c-4.129-1.126-13.8-1.681-22.462-1.379
	C469.066,446.084,452.36,447.649,450.495,448.273z M230.176,477.14c-9.273,0.668-17.457,1.399-21.01,2.069
	c-1.776,0.334-3.696,0.532-4.376,0.473c-0.756-0.064-2.448,0.15-3.852,0.507c-1.403,0.357-4.126,0.952-6.069,1.311
	c-25.19,5.209-43.333,14.749-46.738,26.062c-0.799,2.495-0.746,3.288,0.03,3.39c1.558,0.233,19.019-0.004,28.716-0.581
	c3.076-0.152,6.213-0.195,7.066-0.109c1.471,0.141,6.522-0.105,17.312-1.208c23.142-2.278,40.138-7.186,50.941-14.012
	c6.648-4.135,15.085-13.512,13.529-14.827C262.993,477.939,242.937,476.338,230.176,477.14z M350.153,478.874
	c-2.243,0.684-4.106,1.467-4.097,1.766c0.012,0.36,1.134,2.183,2.415,4.056c2.868,4.166,11.48,11.022,17.397,13.719
	c4.47,2.02,16.386,6.18,18.984,6.594c0.782,0.131,3.997,0.697,6.993,1.325c5.12,0.944,7.231,1.3,18.589,2.806
	c2.445,0.331,5.043,0.518,5.893,0.439c0.776-0.07,3.753,0.019,6.59,0.225c10.404,0.797,17.038,1.004,18.742,0.817
	c1.009-0.112,3.996-0.09,6.691,0.076c7.527,0.452,16.368,0.386,16.708-0.027c0.487-0.486-2.363-6.583-4.047-8.724
	c-5.192-6.703-17.111-13.427-28.967-16.758c-1.976-0.514-4.111-1.138-4.742-1.314c-1.665-0.551-6.132-1.55-9.787-2.289
	c-1.713-0.32-4.507-0.847-6.217-1.236C392.509,476.8,361.217,475.812,350.153,478.874L350.153,478.874z M291.507,491.726
	c-2.528,0.991-6.22,2.49-8.227,3.35c-12.014,5.234-21.92,13.724-22.957,20.167c-0.1,0.597-0.201,1.193-0.301,1.79
	c1.582,0.119,3.164,0.236,4.746,0.35c6.148,0.449,12.453-1.549,17.728-5.527c4.241-3.218,7.838-8.377,14.047-20.558
	C297.394,489.562,296.943,489.629,291.507,491.726z M316.296,492.188c1.169,2.869,3.127,6.747,3.831,7.818
	c0.391,0.534,1.564,2.32,2.588,3.864c3.237,5.109,3.79,5.644,8.43,8.792c5.432,3.603,10.398,5.033,16.785,4.815
	c1.532-0.054,3.064-0.108,4.597-0.167c-0.212-0.793-0.424-1.585-0.635-2.378c-0.361-1.306-1.53-3.482-2.589-4.884
	c-1.057-1.343-2.271-2.98-2.681-3.627c-1.815-2.932-13.177-9.532-22.836-13.482C316.726,490.039,315.367,489.914,316.296,492.188
	L316.296,492.188z"/>
<ellipse fill="#FFFFFF" cx="306" cy="204.045" rx="81.027" ry="87.047"/>
<path fill="#FFFFFF" d="M427.5,351c-14.766-32.563-40.934-54-76.374-54h-90.252c-35.444,0-61.609,21.436-76.374,54
	c36-0.951,72.224,81,121.5,81C355.277,432,382.5,350.049,427.5,351z"/>
</svg>
