<?xml version="1.0" encoding="utf-8"?>
<!-- Generator: Adobe Illustrator 15.0.0, SVG Export Plug-In . SVG Version: 6.00 Build 0)  -->
<!DOCTYPE svg PUBLIC "-//W3C//DTD SVG 1.1//EN" "http://www.w3.org/Graphics/SVG/1.1/DTD/svg11.dtd">
<svg version="1.1" id="Layer_1" xmlns="http://www.w3.org/2000/svg" xmlns:xlink="http://www.w3.org/1999/xlink" x="0px" y="0px"
	 width="28px" height="28px" viewBox="14 14 28 28" enable-background="new 14 14 28 28" xml:space="preserve">
<g>
	<path id="newspaper" fill="#FFFFFF" d="M17,14v23.117c0,0.285-0.213,0.518-0.5,0.518S16,37.402,16,37.117V17h-2v20.334
		C14,39.91,16.089,42,18.667,42h18.667C39.911,42,42,39.91,42,37.334V14H17z M19,18h6v1h-6V18z M19,21h6v1h-6V21z M19,24h6v1h-6V24z
		 M40,37H19v-1h21V37z M40,34H19v-1h21V34z M40,31H19v-1h21V31z M40,28H19v-1h21V28z M40,25H27v-7h13V25z"/>
</g>
</svg>
