<?xml version="1.0" encoding="utf-8"?>
<!-- Generator: Adobe Illustrator 15.0.0, SVG Export Plug-In . SVG Version: 6.00 Build 0)  -->
<!DOCTYPE svg PUBLIC "-//W3C//DTD SVG 1.1//EN" "http://www.w3.org/Graphics/SVG/1.1/DTD/svg11.dtd">
<svg version="1.1" id="Layer_1" xmlns="http://www.w3.org/2000/svg" xmlns:xlink="http://www.w3.org/1999/xlink" x="0px" y="0px"
	 width="28px" height="28px" viewBox="14 14 28 28" enable-background="new 14 14 28 28" xml:space="preserve">
<g>
	<path id="people" fill="#FFFFFF" d="M36.003,25.842c2.677,0,4.845-2.167,4.845-4.842c0-2.672-2.168-4.839-4.845-4.839
		c-2.67,0-4.842,2.167-4.842,4.839C31.162,23.675,33.333,25.842,36.003,25.842z M36,28c-3.314,0-6,2.537-6,5.666V42h12v-8.334
		C42,30.537,39.318,28,36,28z M21.543,24.491c2.902,0,5.25-2.348,5.25-5.247c0-2.896-2.348-5.244-5.25-5.244
		c-2.893,0-5.247,2.349-5.247,5.244C16.296,22.144,18.651,24.491,21.543,24.491z M21.501,26.889c-4.145,0-7.501,3.171-7.501,7.083
		v7.994h15v-7.994C29,30.061,25.648,26.889,21.501,26.889z"/>
</g>
</svg>
