<?xml version="1.0" encoding="utf-8"?>
<!-- Generator: Adobe Illustrator 15.0.0, SVG Export Plug-In . SVG Version: 6.00 Build 0)  -->
<!DOCTYPE svg PUBLIC "-//W3C//DTD SVG 1.1//EN" "http://www.w3.org/Graphics/SVG/1.1/DTD/svg11.dtd">
<svg version="1.1" id="Layer_1" xmlns="http://www.w3.org/2000/svg" xmlns:xlink="http://www.w3.org/1999/xlink" x="0px" y="0px"
	 width="28.001px" height="28px" viewBox="14 14 28.001 28" enable-background="new 14 14 28.001 28" xml:space="preserve">
<g>
	<path id="sound" fill="#F4C182" d="M19,32.542l6,5.457V18l-6,5.457V32.542z M14,31.999h4V24h-4V31.999z M36.68,14l-2.207,2.108
		c2.895,3.264,4.467,7.393,4.432,11.693c-0.037,4.485-1.805,8.77-4.975,12.123L36.105,42c3.756-3.915,5.852-8.945,5.895-14.214
		C42.041,22.702,40.15,17.821,36.68,14z M29.699,20.695l-0.109,0.078l-2.133,2.042c1.082,1.476,1.65,3.209,1.637,5.039
		c-0.017,1.996-0.754,3.931-2.066,5.492l2.186,2.086c1.894-2.131,2.955-4.818,2.979-7.596C32.212,25.225,31.35,22.755,29.699,20.695
		z M33.188,17.338l-2.222,2.12c1.976,2.371,3.058,5.32,3.031,8.369c-0.024,3.241-1.283,6.343-3.522,8.805l2.184,2.085
		c2.83-3.025,4.402-6.883,4.436-10.905C37.125,23.98,35.738,20.271,33.188,17.338z"/>
</g>
</svg>
