<?xml version="1.0" encoding="utf-8"?>
<!-- Generator: Adobe Illustrator 15.0.0, SVG Export Plug-In . SVG Version: 6.00 Build 0)  -->
<!DOCTYPE svg PUBLIC "-//W3C//DTD SVG 1.1//EN" "http://www.w3.org/Graphics/SVG/1.1/DTD/svg11.dtd">
<svg version="1.1" id="Layer_1" xmlns="http://www.w3.org/2000/svg" xmlns:xlink="http://www.w3.org/1999/xlink" x="0px" y="0px"
	 width="612px" height="612px" viewBox="0 0 612 612" enable-background="new 0 0 612 612" xml:space="preserve">
<circle fill="#004B8D" stroke="#F4C182" stroke-width="10" stroke-miterlimit="10" cx="306" cy="306" r="297"/>
<g id="runner">
	<path fill="#FFFFFF" d="M435.964,479.394c-12.449,0-26.197-9.603-26.702-25.116c-0.684-21.022-1.107-53.719-1.211-62.364
		l-38.346-30.227c-4.759,8.59-15.02,26.423-21.814,33.257c-6.753,6.79-28.564,20.063-47.809,31.773
		c-6.138,3.735-11.936,7.264-16.378,10.066c-6.57,4.146-12.989,6.247-19.078,6.247c-10.382,0-18.953-6.336-21.833-16.143
		c-2.851-9.705,0.849-19.54,9.426-25.055c6.739-4.334,47.758-33.878,55.077-39.153l40.249-108.976
		c-3.422-0.631-8.259-1.313-13.18-1.313c-2.676,0-5.119,0.202-7.262,0.602c-5.073,0.945-9.342,2.415-12.688,4.369l-0.1,0.057
		c-0.29,0.16-29.138,16.036-38.793,21.059c-1.549,0.806-3.248,1.215-5.051,1.215c-8.725,0-17.812-9.888-20.109-18.729
		c-1.758-6.768,0.436-12.614,5.867-15.64c12.057-6.716,44.6-24.376,44.928-24.554c0.125-0.067,12.712-6.316,31.392-9.8l0.314-0.057
		c8.56-1.578,17.074-2.377,25.312-2.377c21.307,0,41.099,5.283,58.829,15.702c20.571,12.089,38.41,31.17,53.068,56.749
		c8.409-4.36,28.152-14.527,37.107-18.557c2.215-0.997,4.441-1.502,6.618-1.502c6.658,0,12.4,4.675,15.361,12.506
		c2.452,6.486,2.774,15.512-2.314,20.001c-11.575,10.214-46.202,34.151-60.742,34.151c-0.001,0-0.002,0-0.003,0
		c-0.668,0-1.312-0.047-1.913-0.139c-10.349-1.583-29.592-26.049-39.416-39.423l-19.097,33.018
		c9.307,8.071,38.135,33.79,45.842,49.167c6.735,13.435,6.997,26.017,7.432,46.861c0.172,8.242,0.366,17.585,0.959,29.065
		c0.743,14.394-3.741,22.301-7.633,26.399C448.073,476.957,442.28,479.394,435.964,479.394z M427.683,218.434
		c-17.448-0.001-32.436-12.464-35.636-29.634c-3.664-19.666,9.361-38.648,29.037-42.315c2.204-0.411,4.451-0.619,6.677-0.619
		c17.434,0,32.412,12.464,35.616,29.638c3.664,19.666-9.347,38.646-29.004,42.311c-2.21,0.412-4.46,0.621-6.688,0.621
		C427.684,218.434,427.684,218.434,427.683,218.434z"/>
	<path fill="#EE3124" d="M427.761,150.365c15,0,28.342,10.682,31.192,25.963c3.214,17.247-8.148,33.844-25.405,37.062
		c-1.971,0.367-3.931,0.544-5.865,0.544c-15.015,0-28.364-10.681-31.212-25.959c-3.214-17.248,8.16-33.847,25.438-37.067
		C423.875,150.541,425.83,150.365,427.761,150.365 M358.176,213.035c35.931,0,78.166,15.565,110.103,73.956
		c0,0,29.438-15.369,40.749-20.458c1.696-0.764,3.289-1.105,4.771-1.105c11.164,0.002,15.954,19.441,10.069,24.633
		c-11.886,10.487-45.436,33.025-57.767,33.025c-0.438,0-0.851-0.028-1.233-0.087c-11.15-1.706-40.512-43.245-40.512-43.245
		l-24.448,42.27c0,0,38.861,32.795,47.586,50.201c8.726,17.406,5.792,32.938,7.919,74.143c1.054,20.421-8.97,28.526-19.449,28.526
		c-10.665,0-21.802-8.4-22.204-20.763c-0.798-24.509-1.234-64.421-1.234-64.421l-44.221-34.857c0,0-15.068,28.332-23.605,36.918
		c-8.538,8.586-45.804,30.107-63.396,41.207c-6.229,3.93-11.85,5.553-16.676,5.553c-18.234,0-25.074-23.203-9.974-32.912
		c7.555-4.858,56.389-40.092,56.389-40.092l42.519-115.119c0,0-9.33-2.517-19.194-2.517c-2.716,0-5.474,0.191-8.086,0.678
		c-5.594,1.042-10.351,2.698-14.133,4.907c0,0-28.98,15.953-38.7,21.009c-0.931,0.484-1.933,0.707-2.974,0.707
		c-9.822,0-23.06-19.806-12.052-25.938c12.174-6.781,44.884-24.53,44.884-24.53c0.12-0.064,12.132-5.986,30.071-9.331l0.01,0
		C341.12,213.951,349.462,213.035,358.176,213.035 M427.761,141.365c-2.502,0-5.025,0.234-7.502,0.695
		c-22.114,4.122-36.755,25.458-32.636,47.563c1.536,8.241,5.486,15.516,11.037,21.149c-12.753-4.478-26.298-6.736-40.483-6.737l0,0
		c-8.414,0-17.1,0.806-25.826,2.396l-0.01,0l-0.615,0.113c-19.655,3.666-32.572,10.192-32.69,10.255
		c-0.351,0.19-32.917,17.863-44.995,24.591c-7.226,4.025-10.304,11.958-8.033,20.702c2.771,10.672,13.264,22.098,24.464,22.098
		c2.533,0,4.931-0.58,7.128-1.723c9.701-5.047,37.699-20.455,38.886-21.109l0.101-0.055l0.099-0.058
		c2.897-1.692,6.68-2.981,11.242-3.831c1.872-0.349,4.038-0.525,6.438-0.525c2.421,0,4.833,0.18,7.044,0.437L303.55,359.833
		c-17.376,12.526-48.197,34.634-53.766,38.216c-10.297,6.621-14.736,18.439-11.309,30.107c3.457,11.77,13.722,19.374,26.151,19.374
		c6.952,0,14.178-2.335,21.479-6.941c4.412-2.783,10.195-6.303,16.317-10.028c23.526-14.315,42.048-25.795,48.659-32.444
		c6.141-6.175,14.566-20.125,19.978-29.633l32.519,25.634c0.139,11.017,0.55,40.712,1.188,60.307
		c0.592,18.202,16.655,29.47,31.199,29.47c7.562,0,14.514-2.934,19.573-8.261c4.499-4.737,9.689-13.741,8.864-29.729
		c-0.589-11.411-0.783-20.718-0.954-28.928c-0.447-21.478-0.718-34.441-7.907-48.784c-7.462-14.886-32.446-37.856-44.111-48.11
		l13.856-23.957c2.422,3.16,5.226,6.726,8.2,10.336c17.319,21.015,24.896,24.65,30.021,25.435c0.827,0.127,1.7,0.19,2.595,0.19
		c2.696,0,10.898,0,33.729-13.891c11.092-6.749,23.145-15.343,29.993-21.386c6.726-5.935,6.628-16.814,3.547-24.964
		c-3.594-9.509-11.093-15.417-19.569-15.418c-0.002,0-0.003,0-0.004,0c-2.816,0-5.664,0.639-8.463,1.898
		c-7.882,3.546-23.943,11.751-33.537,16.703c-13.718-22.877-30.07-40.448-48.733-52.355c1.519,0.172,3.061,0.261,4.619,0.261
		c2.506,0,5.034-0.234,7.515-0.697c22.097-4.12,36.723-25.454,32.604-47.558C464.199,155.375,447.36,141.365,427.761,141.365
		L427.761,141.365z"/>
</g>
<line fill="none" stroke="#FFFFFF" stroke-width="18" stroke-linecap="round" stroke-miterlimit="10" x1="309" y1="168.609" x2="128" y2="168.609"/>
<line fill="none" stroke="#FFFFFF" stroke-width="18" stroke-linecap="round" stroke-miterlimit="10" x1="188" y1="253.406" x2="85" y2="253.406"/>
<line fill="none" stroke="#FFFFFF" stroke-width="18" stroke-linecap="round" stroke-miterlimit="10" x1="220" y1="338.203" x2="77" y2="338.203"/>
<line fill="none" stroke="#FFFFFF" stroke-width="18" stroke-linecap="round" stroke-miterlimit="10" x1="179" y1="423" x2="120" y2="423"/>
</svg>
