<?xml version="1.0" encoding="utf-8"?>
<!-- Generator: Adobe Illustrator 15.0.0, SVG Export Plug-In . SVG Version: 6.00 Build 0)  -->
<!DOCTYPE svg PUBLIC "-//W3C//DTD SVG 1.1//EN" "http://www.w3.org/Graphics/SVG/1.1/DTD/svg11.dtd">
<svg version="1.1" id="Layer_1" xmlns="http://www.w3.org/2000/svg" xmlns:xlink="http://www.w3.org/1999/xlink" x="0px" y="0px"
	 width="49.25px" height="49.25px" viewBox="0 0 49.25 49.25" enable-background="new 0 0 49.25 49.25" xml:space="preserve">
<circle fill="#6699CC" cx="24.625" cy="24.625" r="24.625"/>
<path fill="#FFFFFF" d="M40.063,33.2c0,3.047-2.472,5.521-5.519,5.521H15.369c-3.049,0-5.52-2.474-5.52-5.521v-4.438
	c0-3.049,2.471-5.521,5.52-5.521h19.178c3.047,0,5.519,2.472,5.519,5.521L40.063,33.2L40.063,33.2z"/>
<polygon fill="#6699CC" points="14.11,26.698 15.894,26.698 15.894,35.555 17.616,35.555 17.616,26.698 19.397,26.698 
	19.397,25.188 14.11,25.188 "/>
<path fill="#6699CC" d="M28.489,27.813c-0.237,0-0.474,0.062-0.705,0.184c-0.229,0.121-0.448,0.302-0.653,0.533v-3.342h-1.545
	v10.366h1.545v-0.586c0.198,0.235,0.418,0.408,0.651,0.521c0.231,0.11,0.5,0.166,0.802,0.166c0.45,0,0.801-0.144,1.036-0.433
	c0.24-0.291,0.361-0.705,0.361-1.246v-4.243c0-0.628-0.127-1.104-0.386-1.429C29.342,27.979,28.973,27.813,28.489,27.813z
	 M28.405,33.766c0,0.246-0.045,0.42-0.133,0.527c-0.088,0.108-0.226,0.161-0.412,0.161c-0.129,0-0.25-0.028-0.369-0.082
	c-0.116-0.053-0.239-0.146-0.36-0.271v-4.764c0.104-0.106,0.209-0.188,0.313-0.234c0.104-0.053,0.215-0.074,0.324-0.074
	c0.204,0,0.364,0.064,0.477,0.195c0.107,0.137,0.16,0.33,0.16,0.591V33.766z"/>
<path fill="#6699CC" d="M22.905,33.719c-0.144,0.164-0.301,0.299-0.474,0.408c-0.172,0.106-0.315,0.159-0.426,0.159
	c-0.146,0-0.248-0.039-0.313-0.121c-0.062-0.079-0.097-0.211-0.097-0.391v-5.867h-1.526v6.396c0,0.457,0.09,0.793,0.269,1.024
	c0.182,0.228,0.444,0.341,0.799,0.341c0.287,0,0.583-0.078,0.889-0.242c0.306-0.166,0.599-0.399,0.881-0.709v0.838h1.529v-7.646
	h-1.529L22.905,33.719L22.905,33.719z"/>
<path fill="#FFFFFF" d="M28.603,12.162h1.719v6.459c0,0.201,0.039,0.344,0.11,0.432c0.07,0.09,0.188,0.137,0.351,0.137
	c0.125,0,0.285-0.061,0.479-0.178c0.189-0.121,0.369-0.271,0.529-0.457v-6.393h1.723v8.424h-1.723v-0.93
	c-0.313,0.341-0.646,0.604-0.99,0.782c-0.342,0.179-0.674,0.271-0.998,0.271c-0.397,0-0.696-0.128-0.899-0.38
	c-0.199-0.248-0.301-0.624-0.301-1.128V12.162z"/>
<path fill="#FFFFFF" d="M22.213,14.088c0-0.65,0.229-1.17,0.691-1.561c0.465-0.384,1.088-0.578,1.869-0.578
	c0.713,0,1.295,0.205,1.752,0.61c0.453,0.406,0.682,0.935,0.682,1.578v4.351c0,0.723-0.225,1.287-0.666,1.694
	c-0.449,0.408-1.062,0.613-1.846,0.613c-0.752,0-1.354-0.211-1.807-0.632c-0.451-0.425-0.678-0.995-0.678-1.71L22.213,14.088
	L22.213,14.088z"/>
<polygon fill="#FFFFFF" points="17.524,9.168 18.782,13.729 18.905,13.729 20.103,9.168 22.071,9.168 19.817,15.85 19.817,20.587 
	17.879,20.587 17.879,16.061 15.571,9.168 "/>
<path fill="#6699CC" d="M33.104,27.719c-0.687,0-1.24,0.207-1.675,0.627c-0.432,0.416-0.649,0.959-0.649,1.617v3.438
	c0,0.735,0.199,1.313,0.593,1.731c0.393,0.42,0.932,0.631,1.616,0.631c0.763,0,1.334-0.194,1.715-0.592
	c0.388-0.396,0.576-0.988,0.576-1.771v-0.396h-1.571v0.348c0,0.451-0.054,0.742-0.152,0.873c-0.098,0.134-0.275,0.197-0.529,0.197
	c-0.244,0-0.416-0.076-0.52-0.229c-0.101-0.158-0.146-0.438-0.146-0.842v-1.438h2.922v-1.953c0-0.723-0.188-1.277-0.562-1.666
	C34.342,27.911,33.803,27.719,33.104,27.719z M33.709,30.727h-1.352v-0.772c0-0.318,0.049-0.553,0.156-0.687
	c0.104-0.143,0.281-0.211,0.525-0.211c0.229,0,0.401,0.068,0.508,0.211c0.104,0.134,0.16,0.365,0.16,0.687L33.709,30.727
	L33.709,30.727z"/>
<path fill="#6699CC" d="M24.69,19.338c0.233,0,0.42-0.062,0.558-0.188c0.137-0.132,0.206-0.31,0.206-0.533v-4.59
	c0-0.185-0.069-0.334-0.211-0.445c-0.141-0.115-0.323-0.172-0.553-0.172c-0.209,0-0.379,0.057-0.513,0.172
	c-0.131,0.111-0.194,0.262-0.194,0.445v4.59c0,0.229,0.062,0.408,0.185,0.533C24.289,19.276,24.465,19.338,24.69,19.338z"/>
</svg>
