<?xml version="1.0" encoding="utf-8"?>
<!-- Generator: Adobe Illustrator 15.0.0, SVG Export Plug-In . SVG Version: 6.00 Build 0)  -->
<!DOCTYPE svg PUBLIC "-//W3C//DTD SVG 1.1//EN" "http://www.w3.org/Graphics/SVG/1.1/DTD/svg11.dtd">
<svg version="1.1" id="Layer_1" xmlns="http://www.w3.org/2000/svg" xmlns:xlink="http://www.w3.org/1999/xlink" x="0px" y="0px"
	 width="49.25px" height="49.25px" viewBox="0 0 49.25 49.25" enable-background="new 0 0 49.25 49.25" xml:space="preserve">
<g>
	<path fill="#FFFFFF" d="M20.128,42.965c0.3-1.096,1.731-6.77,1.731-6.77c0.857,1.629,3.357,3.067,6.018,3.067
		c7.916,0,13.283-7.217,13.283-16.875c0-7.302-6.189-14.106-15.588-14.106c-11.702,0-17.6,8.388-17.6,15.382
		c0,4.236,1.603,8.004,5.043,9.408c0.563,0.23,1.069,0.008,1.233-0.617c0.111-0.432,0.383-1.526,0.501-1.979
		c0.166-0.614,0.101-0.834-0.354-1.368c-0.991-1.175-1.624-2.685-1.624-4.83c0-6.224,4.653-11.792,12.123-11.792
		c6.611,0,10.246,4.041,10.246,9.437c0,7.102-3.143,13.092-7.809,13.092c-2.576,0-4.505-2.131-3.888-4.744
		c0.737-3.117,2.174-6.484,2.174-8.736c0-2.012-1.079-3.694-3.319-3.694c-2.634,0-4.75,2.726-4.75,6.373
		c0,2.323,0.787,3.896,0.787,3.896s-2.695,11.418-3.168,13.418c-0.44,1.86-0.497,3.91-0.431,5.626
		c0.945,0.415,1.92,0.772,2.923,1.068C18.592,46.745,19.608,44.855,20.128,42.965z"/>
	<path fill="#6699CC" d="M24.625,0C11.025,0,0,11.023,0,24.625c0,10.082,6.062,18.744,14.738,22.553
		c-0.068-1.721-0.012-3.783,0.43-5.652c0.473-2,3.168-13.418,3.168-13.418s-0.787-1.572-0.787-3.896c0-3.647,2.115-6.373,4.75-6.373
		c2.24,0,3.319,1.682,3.319,3.694c0,2.252-1.437,5.619-2.174,8.736c-0.617,2.613,1.312,4.744,3.888,4.744
		c4.666,0,7.809-5.99,7.809-13.092c0-5.396-3.635-9.437-10.246-9.437c-7.47,0-12.123,5.569-12.123,11.792
		c0,2.146,0.633,3.655,1.624,4.83c0.455,0.534,0.52,0.754,0.354,1.368c-0.118,0.453-0.39,1.548-0.501,1.979
		c-0.164,0.625-0.67,0.848-1.233,0.617c-3.44-1.404-5.043-5.172-5.043-9.408c0-6.994,5.898-15.382,17.6-15.382
		c9.398,0,15.588,6.804,15.588,14.106c0,9.658-5.367,16.875-13.283,16.875c-2.66,0-5.16-1.438-6.018-3.067
		c0,0-1.431,5.674-1.731,6.77c-0.522,1.898-1.545,3.797-2.479,5.273c2.215,0.653,4.554,1.012,6.979,1.012
		c13.599,0,24.623-11.023,24.623-24.623C49.248,11.023,38.223,0,24.625,0z"/>
</g>
</svg>
