<?xml version="1.0" encoding="utf-8"?>
<!-- Generator: Adobe Illustrator 15.0.0, SVG Export Plug-In . SVG Version: 6.00 Build 0)  -->
<!DOCTYPE svg PUBLIC "-//W3C//DTD SVG 1.1//EN" "http://www.w3.org/Graphics/SVG/1.1/DTD/svg11.dtd">
<svg version="1.1" id="Layer_1" xmlns="http://www.w3.org/2000/svg" xmlns:xlink="http://www.w3.org/1999/xlink" x="0px" y="0px"
	 width="49.25px" height="49.248px" viewBox="0 0 49.25 49.248" enable-background="new 0 0 49.25 49.248" xml:space="preserve">
<circle fill="#6699CC" cx="24.625" cy="24.625" r="24.625"/>
<path fill="#FFFFFF" d="M39.057,35.722c0,1.842-1.492,3.332-3.33,3.332H13.523c-1.838,0-3.329-1.49-3.329-3.332v-22.2
	c0-1.839,1.491-3.33,3.329-3.33h22.204c1.838,0,3.33,1.491,3.33,3.33V35.722z"/>
<circle fill="#6699CC" cx="24.625" cy="24.623" r="5.55"/>
<path fill="#6699CC" d="M34.615,13.523h-3.33c-0.612,0-1.109,0.497-1.109,1.11v3.33c0,0.613,0.497,1.11,1.109,1.11h3.33
	c0.613,0,1.111-0.497,1.111-1.11v-3.33C35.727,14.02,35.23,13.523,34.615,13.523z"/>
<path fill="#6699CC" d="M33.506,24.624c0,4.905-3.977,8.881-8.881,8.881s-8.88-3.977-8.88-8.881c0-0.769,0.108-1.511,0.292-2.222
	h-2.513v12.212c0,0.611,0.498,1.107,1.112,1.107h19.979c0.615,0,1.111-0.496,1.111-1.107V22.402h-2.512
	C33.398,23.113,33.506,23.855,33.506,24.624z"/>
</svg>
