<?xml version="1.0" encoding="utf-8"?>
<!-- Generator: Adobe Illustrator 15.0.0, SVG Export Plug-In . SVG Version: 6.00 Build 0)  -->
<!DOCTYPE svg PUBLIC "-//W3C//DTD SVG 1.1//EN" "http://www.w3.org/Graphics/SVG/1.1/DTD/svg11.dtd">
<svg version="1.1" id="Layer_1" xmlns="http://www.w3.org/2000/svg" xmlns:xlink="http://www.w3.org/1999/xlink" x="0px" y="0px"
	 width="49.25px" height="49.248px" viewBox="0 0 49.25 49.248" enable-background="new 0 0 49.25 49.248" xml:space="preserve">
<path fill="#6699CC" d="M24.626,0C11.024,0,0.001,11.027,0.001,24.625c0,13.6,11.024,24.623,24.625,24.623
	c13.6,0,24.623-11.023,24.623-24.623C49.25,11.027,38.223,0,24.626,0z"/>
<path fill="#FFFFFF" d="M37.029,19.66c0.016,0.266,0.02,0.534,0.02,0.803c0,8.201-6.242,17.656-17.655,17.656
	c-3.504,0-6.767-1.027-9.513-2.787c0.485,0.057,0.979,0.086,1.479,0.086c2.908,0,5.584-0.992,7.707-2.656
	c-2.715-0.051-5.006-1.846-5.796-4.311c0.378,0.074,0.767,0.108,1.167,0.108c0.566,0,1.114-0.071,1.635-0.217
	c-2.84-0.567-4.979-3.08-4.979-6.084c0-0.024,0-0.054,0.001-0.08c0.836,0.465,1.793,0.744,2.811,0.776
	c-1.666-1.114-2.761-3.011-2.761-5.165c0-1.137,0.306-2.204,0.84-3.12c3.062,3.754,7.634,6.226,12.792,6.482
	c-0.104-0.453-0.162-0.93-0.162-1.415c0-3.426,2.779-6.205,6.207-6.205c1.785,0,3.396,0.754,4.527,1.959
	c1.414-0.277,2.742-0.795,3.941-1.506c-0.467,1.45-1.447,2.666-2.729,3.433c1.256-0.149,2.451-0.483,3.564-0.977
	C39.296,17.692,38.242,18.785,37.029,19.66z"/>
</svg>
